%TF.GenerationSoftware,KiCad,Pcbnew,(6.0.0-0)*%
%TF.CreationDate,2022-01-07T12:45:35+01:00*%
%TF.ProjectId,TeensyTest,5465656e-7379-4546-9573-742e6b696361,rev?*%
%TF.SameCoordinates,Original*%
%TF.FileFunction,Copper,L2,Bot*%
%TF.FilePolarity,Positive*%
%FSLAX46Y46*%
G04 Gerber Fmt 4.6, Leading zero omitted, Abs format (unit mm)*
G04 Created by KiCad (PCBNEW (6.0.0-0)) date 2022-01-07 12:45:35*
%MOMM*%
%LPD*%
G01*
G04 APERTURE LIST*
%TA.AperFunction,ComponentPad*%
%ADD10R,1.700000X1.700000*%
%TD*%
%TA.AperFunction,ComponentPad*%
%ADD11O,1.700000X1.700000*%
%TD*%
%TA.AperFunction,ComponentPad*%
%ADD12C,1.400000*%
%TD*%
%TA.AperFunction,ComponentPad*%
%ADD13O,1.400000X1.400000*%
%TD*%
%TA.AperFunction,ComponentPad*%
%ADD14R,1.600000X1.600000*%
%TD*%
%TA.AperFunction,ComponentPad*%
%ADD15C,1.600000*%
%TD*%
%TA.AperFunction,ComponentPad*%
%ADD16C,1.700000*%
%TD*%
%TA.AperFunction,ComponentPad*%
%ADD17O,1.600000X1.700000*%
%TD*%
%TA.AperFunction,Conductor*%
%ADD18C,0.250000*%
%TD*%
G04 APERTURE END LIST*
D10*
%TO.P,BT1,1,+*%
%TO.N,/5.5V*%
X128900000Y-93500000D03*
D11*
%TO.P,BT1,2,-*%
%TO.N,/GND*%
X128900000Y-96040000D03*
%TD*%
D10*
%TO.P,D1,1,K*%
%TO.N,/GND*%
X134200000Y-95975000D03*
D11*
%TO.P,D1,2,A*%
%TO.N,/VLTG_LOW_OUT*%
X134200000Y-93435000D03*
%TD*%
D10*
%TO.P,J1,1,Pin_1*%
%TO.N,/GND*%
X181775000Y-94250000D03*
D11*
%TO.P,J1,2,Pin_2*%
%TO.N,/DISP_SEL*%
X181775000Y-96790000D03*
%TD*%
D10*
%TO.P,HC5,1,Pin_1*%
%TO.N,unconnected-(HC5-Pad1)*%
X133858000Y-129540000D03*
D11*
%TO.P,HC5,2,Pin_2*%
%TO.N,/RX(TX)*%
X136398000Y-129540000D03*
%TO.P,HC5,3,Pin_3*%
%TO.N,/TX(RX)*%
X138938000Y-129540000D03*
%TO.P,HC5,4,Pin_4*%
%TO.N,/GND*%
X141478000Y-129540000D03*
%TO.P,HC5,5,Pin_5*%
%TO.N,/5.5V*%
X144018000Y-129540000D03*
%TO.P,HC5,6,Pin_6*%
%TO.N,unconnected-(HC5-Pad6)*%
X146558000Y-129540000D03*
%TD*%
D12*
%TO.P,R3,1*%
%TO.N,/VCC_LOW*%
X149140000Y-99900000D03*
D13*
%TO.P,R3,2*%
%TO.N,/5.5V*%
X144060000Y-99900000D03*
%TD*%
D14*
%TO.P,U1,1*%
%TO.N,N/C*%
X133350000Y-121920000D03*
D15*
%TO.P,U1,2*%
X135890000Y-121920000D03*
%TO.P,U1,3*%
X138430000Y-121920000D03*
%TO.P,U1,4*%
X140970000Y-121920000D03*
%TO.P,U1,5*%
X143510000Y-121920000D03*
%TO.P,U1,6*%
X146050000Y-121920000D03*
D16*
%TO.P,U1,7*%
X148590000Y-121920000D03*
D17*
%TO.P,U1,8*%
X151130000Y-121920000D03*
D15*
%TO.P,U1,9*%
X153670000Y-121920000D03*
%TO.P,U1,10*%
X156210000Y-121920000D03*
%TO.P,U1,11*%
X158750000Y-121920000D03*
%TO.P,U1,12*%
X161290000Y-121920000D03*
%TO.P,U1,13*%
X161290000Y-119380000D03*
%TO.P,U1,14*%
X161290000Y-116840000D03*
%TO.P,U1,15*%
X161290000Y-114300000D03*
%TO.P,U1,16*%
X161290000Y-111760000D03*
%TO.P,U1,17*%
X161290000Y-109220000D03*
%TO.P,U1,18*%
X161290000Y-106680000D03*
%TO.P,U1,19*%
X158750000Y-106680000D03*
%TO.P,U1,20*%
X156210000Y-106680000D03*
%TO.P,U1,21*%
X153670000Y-106680000D03*
%TO.P,U1,22*%
X151130000Y-106680000D03*
%TO.P,U1,23*%
X148590000Y-106680000D03*
%TO.P,U1,24*%
X146050000Y-106680000D03*
%TO.P,U1,25*%
X143510000Y-106680000D03*
%TO.P,U1,26*%
X140970000Y-106680000D03*
%TO.P,U1,27*%
X138430000Y-106680000D03*
%TO.P,U1,28*%
X135890000Y-106680000D03*
%TO.P,U1,29*%
X133350000Y-106680000D03*
%TO.P,U1,30*%
X143510000Y-119380000D03*
%TO.P,U1,31*%
X143510000Y-109220000D03*
%TD*%
D10*
%TO.P,IC2_3,1,Pin_1*%
%TO.N,/3.3V*%
X181734000Y-106865000D03*
D11*
%TO.P,IC2_3,2,Pin_2*%
%TO.N,/GND*%
X181734000Y-109405000D03*
%TO.P,IC2_3,3,Pin_3*%
%TO.N,/SDA*%
X181734000Y-111945000D03*
%TO.P,IC2_3,4,Pin_4*%
%TO.N,/SCL*%
X181734000Y-114485000D03*
%TD*%
D12*
%TO.P,R1,1*%
%TO.N,N/C*%
X148840000Y-94100000D03*
D13*
%TO.P,R1,2*%
X143760000Y-94100000D03*
%TD*%
D10*
%TO.P,J2,1,Pin_1*%
%TO.N,/GND*%
X167875000Y-94275000D03*
D11*
%TO.P,J2,2,Pin_2*%
%TO.N,/GPIO_2*%
X167875000Y-96815000D03*
%TD*%
D12*
%TO.P,R2,1*%
%TO.N,/GND*%
X162340000Y-94100000D03*
D13*
%TO.P,R2,2*%
%TO.N,/3.3V*%
X157260000Y-94100000D03*
%TD*%
D10*
%TO.P,IC2_2,1,Pin_1*%
%TO.N,/5.5V*%
X181875000Y-128425000D03*
D11*
%TO.P,IC2_2,2,Pin_2*%
%TO.N,/GND*%
X181875000Y-125885000D03*
%TO.P,IC2_2,3,Pin_3*%
%TO.N,/SDA*%
X181875000Y-123345000D03*
%TO.P,IC2_2,4,Pin_4*%
%TO.N,/SCL*%
X181875000Y-120805000D03*
%TD*%
D10*
%TO.P,J3,1,Pin_1*%
%TO.N,/GND*%
X172300000Y-94250000D03*
D11*
%TO.P,J3,2,Pin_2*%
%TO.N,/GPIO_1*%
X172300000Y-96790000D03*
%TD*%
D12*
%TO.P,R4,1*%
%TO.N,/GND*%
X162240000Y-99900000D03*
D13*
%TO.P,R4,2*%
%TO.N,/VCC_LOW*%
X157160000Y-99900000D03*
%TD*%
D10*
%TO.P,IC2_4,1,Pin_1*%
%TO.N,/3.3V*%
X168700000Y-106760000D03*
D11*
%TO.P,IC2_4,2,Pin_2*%
%TO.N,/GND*%
X168700000Y-109300000D03*
%TO.P,IC2_4,3,Pin_3*%
%TO.N,/SDA*%
X168700000Y-111840000D03*
%TO.P,IC2_4,4,Pin_4*%
%TO.N,/SCL*%
X168700000Y-114380000D03*
%TD*%
D10*
%TO.P,IC2_1,1,Pin_1*%
%TO.N,/5.5V*%
X168757000Y-128084000D03*
D11*
%TO.P,IC2_1,2,Pin_2*%
%TO.N,/GND*%
X168757000Y-125544000D03*
%TO.P,IC2_1,3,Pin_3*%
%TO.N,/SDA*%
X168757000Y-123004000D03*
%TO.P,IC2_1,4,Pin_4*%
%TO.N,/SCL*%
X168757000Y-120464000D03*
%TD*%
D10*
%TO.P,J4,1,Pin_1*%
%TO.N,/GND*%
X177150000Y-94250000D03*
D11*
%TO.P,J4,2,Pin_2*%
%TO.N,/SET*%
X177150000Y-96790000D03*
%TD*%
D18*
%TO.N,/5.5V*%
X143800000Y-130200000D02*
X143800000Y-129800000D01*
X131200000Y-133300000D02*
X140700000Y-133300000D01*
X133350000Y-106680000D02*
X130100000Y-109930000D01*
X181711000Y-128389000D02*
X181975000Y-128125000D01*
X130100000Y-132200000D02*
X131200000Y-133300000D01*
X140700000Y-133300000D02*
X143800000Y-130200000D01*
X130100000Y-109930000D02*
X130100000Y-132200000D01*
%TO.N,/GND*%
X140200000Y-128770000D02*
X140200000Y-128800000D01*
X158475000Y-95975000D02*
X162300000Y-99800000D01*
X168700000Y-109300000D02*
X168854474Y-109300000D01*
X134200000Y-95975000D02*
X158475000Y-95975000D01*
X133350000Y-121920000D02*
X140200000Y-128770000D01*
X140200000Y-128800000D02*
X141500000Y-130100000D01*
%TO.N,/SCL*%
X168757000Y-120464000D02*
X166911000Y-120464000D01*
X166911000Y-120464000D02*
X163375000Y-124000000D01*
X148500000Y-122400000D02*
X148500000Y-122000000D01*
X168941000Y-120270000D02*
X168891000Y-120320000D01*
X150575000Y-124000000D02*
X149075000Y-122500000D01*
X163375000Y-124000000D02*
X150575000Y-124000000D01*
%TO.N,/VCC_LOW*%
X150000000Y-126000000D02*
X142300000Y-126000000D01*
X151300000Y-131700000D02*
X151300000Y-127300000D01*
X128500000Y-106700000D02*
X128500000Y-131900000D01*
X131300000Y-103900000D02*
X128500000Y-106700000D01*
X149140000Y-99900000D02*
X145140000Y-103900000D01*
X128500000Y-131900000D02*
X130900000Y-134300000D01*
X151300000Y-127300000D02*
X150000000Y-126000000D01*
X148700000Y-134300000D02*
X151300000Y-131700000D01*
X142300000Y-126000000D02*
X138200000Y-121900000D01*
X130900000Y-134300000D02*
X148700000Y-134300000D01*
X145140000Y-103900000D02*
X131300000Y-103900000D01*
%TO.N,/DISP_SEL*%
X185325000Y-100340000D02*
X185325000Y-115725000D01*
X183025000Y-118025000D02*
X165425000Y-118025000D01*
X165425000Y-118025000D02*
X161575000Y-121875000D01*
X185325000Y-115725000D02*
X183025000Y-118025000D01*
X181775000Y-96790000D02*
X185325000Y-100340000D01*
%TO.N,/SET*%
X163275000Y-104350000D02*
X161275000Y-106350000D01*
X169590000Y-104350000D02*
X163275000Y-104350000D01*
X161275000Y-106350000D02*
X161200000Y-106350000D01*
X177150000Y-96790000D02*
X169590000Y-104350000D01*
%TO.N,/GPIO_2*%
X167875000Y-98500000D02*
X164375000Y-102000000D01*
X164375000Y-102000000D02*
X159850000Y-102000000D01*
X159850000Y-102000000D02*
X159800000Y-101950000D01*
X167875000Y-96815000D02*
X167875000Y-98500000D01*
X159800000Y-101950000D02*
X156400000Y-105350000D01*
X156400000Y-105350000D02*
X156400000Y-106575000D01*
%TO.N,/GPIO_1*%
X162100000Y-103000000D02*
X158750000Y-106350000D01*
X166090000Y-103000000D02*
X162100000Y-103000000D01*
X172300000Y-96790000D02*
X166090000Y-103000000D01*
X158750000Y-106350000D02*
X158750000Y-106425000D01*
%TD*%
M02*
