M48
; DRILL file {KiCad (6.0.0-0)} date 2022 January 07, Friday 13:34:19
; FORMAT={-:-/ absolute / inch / decimal}
; #@! TF.CreationDate,2022-01-07T13:34:19+01:00
; #@! TF.GenerationSoftware,Kicad,Pcbnew,(6.0.0-0)
; #@! TF.FileFunction,Plated,1,2,PTH
FMAT,2
INCH
; #@! TA.AperFunction,Plated,PTH,ComponentDrill
T1C0.0276
; #@! TA.AperFunction,Plated,PTH,ComponentDrill
T2C0.0394
; #@! TA.AperFunction,Plated,PTH,ComponentDrill
T3C0.0433
%
G90
G05
T1
X5.6598Y-3.7047
X5.6717Y-3.9331
X5.8598Y-3.7047
X5.8717Y-3.9331
X6.1874Y-3.9331
X6.1913Y-3.7047
X6.3874Y-3.9331
X6.3913Y-3.7047
T2
X5.0748Y-3.6811
X5.0748Y-3.7811
X5.27Y-5.1
X5.2835Y-3.6785
X5.2835Y-3.7785
X5.37Y-5.1
X5.47Y-5.1
X5.57Y-5.1
X5.67Y-5.1
X5.77Y-5.1
X5.85Y-4.8
X6.6093Y-3.7116
X6.6093Y-3.8116
X6.6417Y-4.2031
X6.6417Y-4.3031
X6.6417Y-4.4031
X6.6417Y-4.5031
X6.644Y-4.7427
X6.644Y-4.8427
X6.644Y-4.9427
X6.644Y-5.0427
X6.7835Y-3.7106
X6.7835Y-3.8106
X6.9744Y-3.7106
X6.9744Y-3.8106
X7.1549Y-4.2073
X7.1549Y-4.3073
X7.1549Y-4.4073
X7.1549Y-4.5073
X7.1565Y-3.7106
X7.1565Y-3.8106
X7.1604Y-4.7561
X7.1604Y-4.8561
X7.1604Y-4.9561
X7.1604Y-5.0561
T3
X5.25Y-4.2
X5.25Y-4.8
X5.35Y-4.2
X5.35Y-4.8
X5.45Y-4.2
X5.45Y-4.8
X5.55Y-4.2
X5.55Y-4.8
X5.65Y-4.2
X5.65Y-4.3
X5.65Y-4.7
X5.65Y-4.8
X5.75Y-4.2
X5.75Y-4.8
X5.85Y-4.2
X5.95Y-4.2
X5.95Y-4.8
X6.05Y-4.2
X6.05Y-4.8
X6.15Y-4.2
X6.15Y-4.8
X6.25Y-4.2
X6.25Y-4.8
X6.35Y-4.2
X6.35Y-4.3
X6.35Y-4.4
X6.35Y-4.5
X6.35Y-4.6
X6.35Y-4.7
X6.35Y-4.8
T0
M30
