%TF.GenerationSoftware,KiCad,Pcbnew,(6.0.0-0)*%
%TF.CreationDate,2022-01-07T12:45:36+01:00*%
%TF.ProjectId,TeensyTest,5465656e-7379-4546-9573-742e6b696361,rev?*%
%TF.SameCoordinates,Original*%
%TF.FileFunction,Soldermask,Top*%
%TF.FilePolarity,Negative*%
%FSLAX46Y46*%
G04 Gerber Fmt 4.6, Leading zero omitted, Abs format (unit mm)*
G04 Created by KiCad (PCBNEW (6.0.0-0)) date 2022-01-07 12:45:36*
%MOMM*%
%LPD*%
G01*
G04 APERTURE LIST*
%ADD10R,1.700000X1.700000*%
%ADD11O,1.700000X1.700000*%
%ADD12C,2.100000*%
%ADD13C,1.400000*%
%ADD14O,1.400000X1.400000*%
%ADD15R,1.600000X1.600000*%
%ADD16C,1.600000*%
%ADD17C,1.700000*%
%ADD18O,1.600000X1.700000*%
G04 APERTURE END LIST*
D10*
%TO.C,BT1*%
X128900000Y-93500000D03*
D11*
X128900000Y-96040000D03*
%TD*%
D10*
%TO.C,D1*%
X134200000Y-95975000D03*
D11*
X134200000Y-93435000D03*
%TD*%
D10*
%TO.C,J1*%
X181775000Y-94250000D03*
D11*
X181775000Y-96790000D03*
%TD*%
D12*
%TO.C,H3*%
X184000000Y-133000000D03*
%TD*%
D10*
%TO.C,HC5*%
X133858000Y-129540000D03*
D11*
X136398000Y-129540000D03*
X138938000Y-129540000D03*
X141478000Y-129540000D03*
X144018000Y-129540000D03*
X146558000Y-129540000D03*
%TD*%
D12*
%TO.C,H2*%
X122000000Y-133000000D03*
%TD*%
D13*
%TO.C,R3*%
X149140000Y-99900000D03*
D14*
X144060000Y-99900000D03*
%TD*%
D12*
%TO.C,H4*%
X184000000Y-88000000D03*
%TD*%
D15*
%TO.C,U1*%
X133350000Y-121920000D03*
D16*
X135890000Y-121920000D03*
X138430000Y-121920000D03*
X140970000Y-121920000D03*
X143510000Y-121920000D03*
X146050000Y-121920000D03*
D17*
X148590000Y-121920000D03*
D18*
X151130000Y-121920000D03*
D16*
X153670000Y-121920000D03*
X156210000Y-121920000D03*
X158750000Y-121920000D03*
X161290000Y-121920000D03*
X161290000Y-119380000D03*
X161290000Y-116840000D03*
X161290000Y-114300000D03*
X161290000Y-111760000D03*
X161290000Y-109220000D03*
X161290000Y-106680000D03*
X158750000Y-106680000D03*
X156210000Y-106680000D03*
X153670000Y-106680000D03*
X151130000Y-106680000D03*
X148590000Y-106680000D03*
X146050000Y-106680000D03*
X143510000Y-106680000D03*
X140970000Y-106680000D03*
X138430000Y-106680000D03*
X135890000Y-106680000D03*
X133350000Y-106680000D03*
X143510000Y-119380000D03*
X143510000Y-109220000D03*
%TD*%
D12*
%TO.C,H1*%
X122000000Y-88000000D03*
%TD*%
D10*
%TO.C,IC2_3*%
X181734000Y-106865000D03*
D11*
X181734000Y-109405000D03*
X181734000Y-111945000D03*
X181734000Y-114485000D03*
%TD*%
D13*
%TO.C,R1*%
X148840000Y-94100000D03*
D14*
X143760000Y-94100000D03*
%TD*%
D10*
%TO.C,J2*%
X167875000Y-94275000D03*
D11*
X167875000Y-96815000D03*
%TD*%
D13*
%TO.C,R2*%
X162340000Y-94100000D03*
D14*
X157260000Y-94100000D03*
%TD*%
D10*
%TO.C,IC2_2*%
X181875000Y-128425000D03*
D11*
X181875000Y-125885000D03*
X181875000Y-123345000D03*
X181875000Y-120805000D03*
%TD*%
D10*
%TO.C,J3*%
X172300000Y-94250000D03*
D11*
X172300000Y-96790000D03*
%TD*%
D13*
%TO.C,R4*%
X162240000Y-99900000D03*
D14*
X157160000Y-99900000D03*
%TD*%
D10*
%TO.C,IC2_4*%
X168700000Y-106760000D03*
D11*
X168700000Y-109300000D03*
X168700000Y-111840000D03*
X168700000Y-114380000D03*
%TD*%
D10*
%TO.C,IC2_1*%
X168757000Y-128084000D03*
D11*
X168757000Y-125544000D03*
X168757000Y-123004000D03*
X168757000Y-120464000D03*
%TD*%
D10*
%TO.C,J4*%
X177150000Y-94250000D03*
D11*
X177150000Y-96790000D03*
%TD*%
M02*
