%TF.GenerationSoftware,KiCad,Pcbnew,(6.0.0-0)*%
%TF.CreationDate,2022-01-07T12:45:36+01:00*%
%TF.ProjectId,TeensyTest,5465656e-7379-4546-9573-742e6b696361,rev?*%
%TF.SameCoordinates,Original*%
%TF.FileFunction,Legend,Top*%
%TF.FilePolarity,Positive*%
%FSLAX46Y46*%
G04 Gerber Fmt 4.6, Leading zero omitted, Abs format (unit mm)*
G04 Created by KiCad (PCBNEW (6.0.0-0)) date 2022-01-07 12:45:36*
%MOMM*%
%LPD*%
G01*
G04 APERTURE LIST*
%ADD10C,0.150000*%
%ADD11C,0.120000*%
%ADD12C,0.100000*%
G04 APERTURE END LIST*
D10*
X183000000Y-86000000D02*
G75*
G03*
X186000000Y-88000000I833333J-2000000D01*
G01*
X186000000Y-102000000D02*
X186000000Y-88000000D01*
X165000000Y-102000000D02*
X186000000Y-102000000D01*
X165000000Y-86000000D02*
X183000000Y-86000000D01*
X165000000Y-86000000D02*
X165000000Y-102000000D01*
X163809523Y-120404761D02*
X163952380Y-120452380D01*
X164190476Y-120452380D01*
X164285714Y-120404761D01*
X164333333Y-120357142D01*
X164380952Y-120261904D01*
X164380952Y-120166666D01*
X164333333Y-120071428D01*
X164285714Y-120023809D01*
X164190476Y-119976190D01*
X164000000Y-119928571D01*
X163904761Y-119880952D01*
X163857142Y-119833333D01*
X163809523Y-119738095D01*
X163809523Y-119642857D01*
X163857142Y-119547619D01*
X163904761Y-119500000D01*
X164000000Y-119452380D01*
X164238095Y-119452380D01*
X164380952Y-119500000D01*
X165380952Y-120357142D02*
X165333333Y-120404761D01*
X165190476Y-120452380D01*
X165095238Y-120452380D01*
X164952380Y-120404761D01*
X164857142Y-120309523D01*
X164809523Y-120214285D01*
X164761904Y-120023809D01*
X164761904Y-119880952D01*
X164809523Y-119690476D01*
X164857142Y-119595238D01*
X164952380Y-119500000D01*
X165095238Y-119452380D01*
X165190476Y-119452380D01*
X165333333Y-119500000D01*
X165380952Y-119547619D01*
X166285714Y-120452380D02*
X165809523Y-120452380D01*
X165809523Y-119452380D01*
X126823809Y-89902380D02*
X126823809Y-88902380D01*
X127204761Y-88902380D01*
X127300000Y-88950000D01*
X127347619Y-88997619D01*
X127395238Y-89092857D01*
X127395238Y-89235714D01*
X127347619Y-89330952D01*
X127300000Y-89378571D01*
X127204761Y-89426190D01*
X126823809Y-89426190D01*
X127966666Y-89902380D02*
X127871428Y-89854761D01*
X127823809Y-89807142D01*
X127776190Y-89711904D01*
X127776190Y-89426190D01*
X127823809Y-89330952D01*
X127871428Y-89283333D01*
X127966666Y-89235714D01*
X128109523Y-89235714D01*
X128204761Y-89283333D01*
X128252380Y-89330952D01*
X128300000Y-89426190D01*
X128300000Y-89711904D01*
X128252380Y-89807142D01*
X128204761Y-89854761D01*
X128109523Y-89902380D01*
X127966666Y-89902380D01*
X128633333Y-89235714D02*
X128823809Y-89902380D01*
X129014285Y-89426190D01*
X129204761Y-89902380D01*
X129395238Y-89235714D01*
X130157142Y-89854761D02*
X130061904Y-89902380D01*
X129871428Y-89902380D01*
X129776190Y-89854761D01*
X129728571Y-89759523D01*
X129728571Y-89378571D01*
X129776190Y-89283333D01*
X129871428Y-89235714D01*
X130061904Y-89235714D01*
X130157142Y-89283333D01*
X130204761Y-89378571D01*
X130204761Y-89473809D01*
X129728571Y-89569047D01*
X130633333Y-89902380D02*
X130633333Y-89235714D01*
X130633333Y-89426190D02*
X130680952Y-89330952D01*
X130728571Y-89283333D01*
X130823809Y-89235714D01*
X130919047Y-89235714D01*
X140813095Y-126500000D02*
X140717857Y-126452380D01*
X140575000Y-126452380D01*
X140432142Y-126500000D01*
X140336904Y-126595238D01*
X140289285Y-126690476D01*
X140241666Y-126880952D01*
X140241666Y-127023809D01*
X140289285Y-127214285D01*
X140336904Y-127309523D01*
X140432142Y-127404761D01*
X140575000Y-127452380D01*
X140670238Y-127452380D01*
X140813095Y-127404761D01*
X140860714Y-127357142D01*
X140860714Y-127023809D01*
X140670238Y-127023809D01*
X141289285Y-127452380D02*
X141289285Y-126452380D01*
X141860714Y-127452380D01*
X141860714Y-126452380D01*
X142336904Y-127452380D02*
X142336904Y-126452380D01*
X142575000Y-126452380D01*
X142717857Y-126500000D01*
X142813095Y-126595238D01*
X142860714Y-126690476D01*
X142908333Y-126880952D01*
X142908333Y-127023809D01*
X142860714Y-127214285D01*
X142813095Y-127309523D01*
X142717857Y-127404761D01*
X142575000Y-127452380D01*
X142336904Y-127452380D01*
X164095238Y-128452380D02*
X163619047Y-128452380D01*
X163571428Y-128928571D01*
X163619047Y-128880952D01*
X163714285Y-128833333D01*
X163952380Y-128833333D01*
X164047619Y-128880952D01*
X164095238Y-128928571D01*
X164142857Y-129023809D01*
X164142857Y-129261904D01*
X164095238Y-129357142D01*
X164047619Y-129404761D01*
X163952380Y-129452380D01*
X163714285Y-129452380D01*
X163619047Y-129404761D01*
X163571428Y-129357142D01*
X164571428Y-129357142D02*
X164619047Y-129404761D01*
X164571428Y-129452380D01*
X164523809Y-129404761D01*
X164571428Y-129357142D01*
X164571428Y-129452380D01*
X165523809Y-128452380D02*
X165047619Y-128452380D01*
X165000000Y-128928571D01*
X165047619Y-128880952D01*
X165142857Y-128833333D01*
X165380952Y-128833333D01*
X165476190Y-128880952D01*
X165523809Y-128928571D01*
X165571428Y-129023809D01*
X165571428Y-129261904D01*
X165523809Y-129357142D01*
X165476190Y-129404761D01*
X165380952Y-129452380D01*
X165142857Y-129452380D01*
X165047619Y-129404761D01*
X165000000Y-129357142D01*
X165857142Y-128452380D02*
X166190476Y-129452380D01*
X166523809Y-128452380D01*
X132463095Y-123500000D02*
X132367857Y-123452380D01*
X132225000Y-123452380D01*
X132082142Y-123500000D01*
X131986904Y-123595238D01*
X131939285Y-123690476D01*
X131891666Y-123880952D01*
X131891666Y-124023809D01*
X131939285Y-124214285D01*
X131986904Y-124309523D01*
X132082142Y-124404761D01*
X132225000Y-124452380D01*
X132320238Y-124452380D01*
X132463095Y-124404761D01*
X132510714Y-124357142D01*
X132510714Y-124023809D01*
X132320238Y-124023809D01*
X132939285Y-124452380D02*
X132939285Y-123452380D01*
X133510714Y-124452380D01*
X133510714Y-123452380D01*
X133986904Y-124452380D02*
X133986904Y-123452380D01*
X134225000Y-123452380D01*
X134367857Y-123500000D01*
X134463095Y-123595238D01*
X134510714Y-123690476D01*
X134558333Y-123880952D01*
X134558333Y-124023809D01*
X134510714Y-124214285D01*
X134463095Y-124309523D01*
X134367857Y-124404761D01*
X134225000Y-124452380D01*
X133986904Y-124452380D01*
X150785714Y-124404761D02*
X150928571Y-124452380D01*
X151166666Y-124452380D01*
X151261904Y-124404761D01*
X151309523Y-124357142D01*
X151357142Y-124261904D01*
X151357142Y-124166666D01*
X151309523Y-124071428D01*
X151261904Y-124023809D01*
X151166666Y-123976190D01*
X150976190Y-123928571D01*
X150880952Y-123880952D01*
X150833333Y-123833333D01*
X150785714Y-123738095D01*
X150785714Y-123642857D01*
X150833333Y-123547619D01*
X150880952Y-123500000D01*
X150976190Y-123452380D01*
X151214285Y-123452380D01*
X151357142Y-123500000D01*
X151785714Y-124452380D02*
X151785714Y-123452380D01*
X152023809Y-123452380D01*
X152166666Y-123500000D01*
X152261904Y-123595238D01*
X152309523Y-123690476D01*
X152357142Y-123880952D01*
X152357142Y-124023809D01*
X152309523Y-124214285D01*
X152261904Y-124309523D01*
X152166666Y-124404761D01*
X152023809Y-124452380D01*
X151785714Y-124452380D01*
X152738095Y-124166666D02*
X153214285Y-124166666D01*
X152642857Y-124452380D02*
X152976190Y-123452380D01*
X153309523Y-124452380D01*
X155285714Y-104166666D02*
X155761904Y-104166666D01*
X155190476Y-104452380D02*
X155523809Y-103452380D01*
X155857142Y-104452380D01*
X156333333Y-103880952D02*
X156238095Y-103833333D01*
X156190476Y-103785714D01*
X156142857Y-103690476D01*
X156142857Y-103642857D01*
X156190476Y-103547619D01*
X156238095Y-103500000D01*
X156333333Y-103452380D01*
X156523809Y-103452380D01*
X156619047Y-103500000D01*
X156666666Y-103547619D01*
X156714285Y-103642857D01*
X156714285Y-103690476D01*
X156666666Y-103785714D01*
X156619047Y-103833333D01*
X156523809Y-103880952D01*
X156333333Y-103880952D01*
X156238095Y-103928571D01*
X156190476Y-103976190D01*
X156142857Y-104071428D01*
X156142857Y-104261904D01*
X156190476Y-104357142D01*
X156238095Y-104404761D01*
X156333333Y-104452380D01*
X156523809Y-104452380D01*
X156619047Y-104404761D01*
X156666666Y-104357142D01*
X156714285Y-104261904D01*
X156714285Y-104071428D01*
X156666666Y-103976190D01*
X156619047Y-103928571D01*
X156523809Y-103880952D01*
X163785714Y-112404761D02*
X163928571Y-112452380D01*
X164166666Y-112452380D01*
X164261904Y-112404761D01*
X164309523Y-112357142D01*
X164357142Y-112261904D01*
X164357142Y-112166666D01*
X164309523Y-112071428D01*
X164261904Y-112023809D01*
X164166666Y-111976190D01*
X163976190Y-111928571D01*
X163880952Y-111880952D01*
X163833333Y-111833333D01*
X163785714Y-111738095D01*
X163785714Y-111642857D01*
X163833333Y-111547619D01*
X163880952Y-111500000D01*
X163976190Y-111452380D01*
X164214285Y-111452380D01*
X164357142Y-111500000D01*
X164785714Y-112452380D02*
X164785714Y-111452380D01*
X165023809Y-111452380D01*
X165166666Y-111500000D01*
X165261904Y-111595238D01*
X165309523Y-111690476D01*
X165357142Y-111880952D01*
X165357142Y-112023809D01*
X165309523Y-112214285D01*
X165261904Y-112309523D01*
X165166666Y-112404761D01*
X165023809Y-112452380D01*
X164785714Y-112452380D01*
X165738095Y-112166666D02*
X166214285Y-112166666D01*
X165642857Y-112452380D02*
X165976190Y-111452380D01*
X166309523Y-112452380D01*
X156755952Y-91377380D02*
X157375000Y-91377380D01*
X157041666Y-91758333D01*
X157184523Y-91758333D01*
X157279761Y-91805952D01*
X157327380Y-91853571D01*
X157375000Y-91948809D01*
X157375000Y-92186904D01*
X157327380Y-92282142D01*
X157279761Y-92329761D01*
X157184523Y-92377380D01*
X156898809Y-92377380D01*
X156803571Y-92329761D01*
X156755952Y-92282142D01*
X157803571Y-92282142D02*
X157851190Y-92329761D01*
X157803571Y-92377380D01*
X157755952Y-92329761D01*
X157803571Y-92282142D01*
X157803571Y-92377380D01*
X158184523Y-91377380D02*
X158803571Y-91377380D01*
X158470238Y-91758333D01*
X158613095Y-91758333D01*
X158708333Y-91805952D01*
X158755952Y-91853571D01*
X158803571Y-91948809D01*
X158803571Y-92186904D01*
X158755952Y-92282142D01*
X158708333Y-92329761D01*
X158613095Y-92377380D01*
X158327380Y-92377380D01*
X158232142Y-92329761D01*
X158184523Y-92282142D01*
X159089285Y-91377380D02*
X159422619Y-92377380D01*
X159755952Y-91377380D01*
X161041666Y-91377380D02*
X161232142Y-91377380D01*
X161327380Y-91425000D01*
X161422619Y-91520238D01*
X161470238Y-91710714D01*
X161470238Y-92044047D01*
X161422619Y-92234523D01*
X161327380Y-92329761D01*
X161232142Y-92377380D01*
X161041666Y-92377380D01*
X160946428Y-92329761D01*
X160851190Y-92234523D01*
X160803571Y-92044047D01*
X160803571Y-91710714D01*
X160851190Y-91520238D01*
X160946428Y-91425000D01*
X161041666Y-91377380D01*
X162327380Y-91710714D02*
X162327380Y-92377380D01*
X161898809Y-91710714D02*
X161898809Y-92234523D01*
X161946428Y-92329761D01*
X162041666Y-92377380D01*
X162184523Y-92377380D01*
X162279761Y-92329761D01*
X162327380Y-92282142D01*
X162660714Y-91710714D02*
X163041666Y-91710714D01*
X162803571Y-91377380D02*
X162803571Y-92234523D01*
X162851190Y-92329761D01*
X162946428Y-92377380D01*
X163041666Y-92377380D01*
X172257142Y-123677380D02*
X171780952Y-123677380D01*
X171733333Y-124153571D01*
X171780952Y-124105952D01*
X171876190Y-124058333D01*
X172114285Y-124058333D01*
X172209523Y-124105952D01*
X172257142Y-124153571D01*
X172304761Y-124248809D01*
X172304761Y-124486904D01*
X172257142Y-124582142D01*
X172209523Y-124629761D01*
X172114285Y-124677380D01*
X171876190Y-124677380D01*
X171780952Y-124629761D01*
X171733333Y-124582142D01*
X172733333Y-124582142D02*
X172780952Y-124629761D01*
X172733333Y-124677380D01*
X172685714Y-124629761D01*
X172733333Y-124582142D01*
X172733333Y-124677380D01*
X173685714Y-123677380D02*
X173209523Y-123677380D01*
X173161904Y-124153571D01*
X173209523Y-124105952D01*
X173304761Y-124058333D01*
X173542857Y-124058333D01*
X173638095Y-124105952D01*
X173685714Y-124153571D01*
X173733333Y-124248809D01*
X173733333Y-124486904D01*
X173685714Y-124582142D01*
X173638095Y-124629761D01*
X173542857Y-124677380D01*
X173304761Y-124677380D01*
X173209523Y-124629761D01*
X173161904Y-124582142D01*
X174019047Y-123677380D02*
X174352380Y-124677380D01*
X174685714Y-123677380D01*
X176114285Y-124153571D02*
X176257142Y-124201190D01*
X176304761Y-124248809D01*
X176352380Y-124344047D01*
X176352380Y-124486904D01*
X176304761Y-124582142D01*
X176257142Y-124629761D01*
X176161904Y-124677380D01*
X175780952Y-124677380D01*
X175780952Y-123677380D01*
X176114285Y-123677380D01*
X176209523Y-123725000D01*
X176257142Y-123772619D01*
X176304761Y-123867857D01*
X176304761Y-123963095D01*
X176257142Y-124058333D01*
X176209523Y-124105952D01*
X176114285Y-124153571D01*
X175780952Y-124153571D01*
X177209523Y-124010714D02*
X177209523Y-124677380D01*
X176780952Y-124010714D02*
X176780952Y-124534523D01*
X176828571Y-124629761D01*
X176923809Y-124677380D01*
X177066666Y-124677380D01*
X177161904Y-124629761D01*
X177209523Y-124582142D01*
X177638095Y-124629761D02*
X177733333Y-124677380D01*
X177923809Y-124677380D01*
X178019047Y-124629761D01*
X178066666Y-124534523D01*
X178066666Y-124486904D01*
X178019047Y-124391666D01*
X177923809Y-124344047D01*
X177780952Y-124344047D01*
X177685714Y-124296428D01*
X177638095Y-124201190D01*
X177638095Y-124153571D01*
X177685714Y-124058333D01*
X177780952Y-124010714D01*
X177923809Y-124010714D01*
X178019047Y-124058333D01*
X166809523Y-99991666D02*
X167285714Y-99991666D01*
X166714285Y-100277380D02*
X167047619Y-99277380D01*
X167380952Y-100277380D01*
X167904761Y-99277380D02*
X168000000Y-99277380D01*
X168095238Y-99325000D01*
X168142857Y-99372619D01*
X168190476Y-99467857D01*
X168238095Y-99658333D01*
X168238095Y-99896428D01*
X168190476Y-100086904D01*
X168142857Y-100182142D01*
X168095238Y-100229761D01*
X168000000Y-100277380D01*
X167904761Y-100277380D01*
X167809523Y-100229761D01*
X167761904Y-100182142D01*
X167714285Y-100086904D01*
X167666666Y-99896428D01*
X167666666Y-99658333D01*
X167714285Y-99467857D01*
X167761904Y-99372619D01*
X167809523Y-99325000D01*
X167904761Y-99277380D01*
X168809523Y-99705952D02*
X168714285Y-99658333D01*
X168666666Y-99610714D01*
X168619047Y-99515476D01*
X168619047Y-99467857D01*
X168666666Y-99372619D01*
X168714285Y-99325000D01*
X168809523Y-99277380D01*
X169000000Y-99277380D01*
X169095238Y-99325000D01*
X169142857Y-99372619D01*
X169190476Y-99467857D01*
X169190476Y-99515476D01*
X169142857Y-99610714D01*
X169095238Y-99658333D01*
X169000000Y-99705952D01*
X168809523Y-99705952D01*
X168714285Y-99753571D01*
X168666666Y-99801190D01*
X168619047Y-99896428D01*
X168619047Y-100086904D01*
X168666666Y-100182142D01*
X168714285Y-100229761D01*
X168809523Y-100277380D01*
X169000000Y-100277380D01*
X169095238Y-100229761D01*
X169142857Y-100182142D01*
X169190476Y-100086904D01*
X169190476Y-99896428D01*
X169142857Y-99801190D01*
X169095238Y-99753571D01*
X169000000Y-99705952D01*
X171134523Y-99186666D02*
X171610714Y-99186666D01*
X171039285Y-99472380D02*
X171372619Y-98472380D01*
X171705952Y-99472380D01*
X172229761Y-98472380D02*
X172325000Y-98472380D01*
X172420238Y-98520000D01*
X172467857Y-98567619D01*
X172515476Y-98662857D01*
X172563095Y-98853333D01*
X172563095Y-99091428D01*
X172515476Y-99281904D01*
X172467857Y-99377142D01*
X172420238Y-99424761D01*
X172325000Y-99472380D01*
X172229761Y-99472380D01*
X172134523Y-99424761D01*
X172086904Y-99377142D01*
X172039285Y-99281904D01*
X171991666Y-99091428D01*
X171991666Y-98853333D01*
X172039285Y-98662857D01*
X172086904Y-98567619D01*
X172134523Y-98520000D01*
X172229761Y-98472380D01*
X173039285Y-99472380D02*
X173229761Y-99472380D01*
X173325000Y-99424761D01*
X173372619Y-99377142D01*
X173467857Y-99234285D01*
X173515476Y-99043809D01*
X173515476Y-98662857D01*
X173467857Y-98567619D01*
X173420238Y-98520000D01*
X173325000Y-98472380D01*
X173134523Y-98472380D01*
X173039285Y-98520000D01*
X172991666Y-98567619D01*
X172944047Y-98662857D01*
X172944047Y-98900952D01*
X172991666Y-98996190D01*
X173039285Y-99043809D01*
X173134523Y-99091428D01*
X173325000Y-99091428D01*
X173420238Y-99043809D01*
X173467857Y-98996190D01*
X173515476Y-98900952D01*
X170920238Y-101082380D02*
X170920238Y-100082380D01*
X171301190Y-100082380D01*
X171396428Y-100130000D01*
X171444047Y-100177619D01*
X171491666Y-100272857D01*
X171491666Y-100415714D01*
X171444047Y-100510952D01*
X171396428Y-100558571D01*
X171301190Y-100606190D01*
X170920238Y-100606190D01*
X171920238Y-101082380D02*
X171920238Y-100082380D01*
X172253571Y-100796666D01*
X172586904Y-100082380D01*
X172586904Y-101082380D01*
X172967857Y-100082380D02*
X173205952Y-101082380D01*
X173396428Y-100368095D01*
X173586904Y-101082380D01*
X173825000Y-100082380D01*
X158761904Y-93547619D02*
X158809523Y-93500000D01*
X158904761Y-93452380D01*
X159142857Y-93452380D01*
X159238095Y-93500000D01*
X159285714Y-93547619D01*
X159333333Y-93642857D01*
X159333333Y-93738095D01*
X159285714Y-93880952D01*
X158714285Y-94452380D01*
X159333333Y-94452380D01*
X159714285Y-93547619D02*
X159761904Y-93500000D01*
X159857142Y-93452380D01*
X160095238Y-93452380D01*
X160190476Y-93500000D01*
X160238095Y-93547619D01*
X160285714Y-93642857D01*
X160285714Y-93738095D01*
X160238095Y-93880952D01*
X159666666Y-94452380D01*
X160285714Y-94452380D01*
X160904761Y-93452380D02*
X161000000Y-93452380D01*
X161095238Y-93500000D01*
X161142857Y-93547619D01*
X161190476Y-93642857D01*
X161238095Y-93833333D01*
X161238095Y-94071428D01*
X161190476Y-94261904D01*
X161142857Y-94357142D01*
X161095238Y-94404761D01*
X161000000Y-94452380D01*
X160904761Y-94452380D01*
X160809523Y-94404761D01*
X160761904Y-94357142D01*
X160714285Y-94261904D01*
X160666666Y-94071428D01*
X160666666Y-93833333D01*
X160714285Y-93642857D01*
X160761904Y-93547619D01*
X160809523Y-93500000D01*
X160904761Y-93452380D01*
X142663095Y-123452380D02*
X143234523Y-123452380D01*
X142948809Y-124452380D02*
X142948809Y-123452380D01*
X143472619Y-123452380D02*
X144139285Y-124452380D01*
X144139285Y-123452380D02*
X143472619Y-124452380D01*
X135595238Y-123928571D02*
X135738095Y-123976190D01*
X135785714Y-124023809D01*
X135833333Y-124119047D01*
X135833333Y-124261904D01*
X135785714Y-124357142D01*
X135738095Y-124404761D01*
X135642857Y-124452380D01*
X135261904Y-124452380D01*
X135261904Y-123452380D01*
X135595238Y-123452380D01*
X135690476Y-123500000D01*
X135738095Y-123547619D01*
X135785714Y-123642857D01*
X135785714Y-123738095D01*
X135738095Y-123833333D01*
X135690476Y-123880952D01*
X135595238Y-123928571D01*
X135261904Y-123928571D01*
X136452380Y-123452380D02*
X136547619Y-123452380D01*
X136642857Y-123500000D01*
X136690476Y-123547619D01*
X136738095Y-123642857D01*
X136785714Y-123833333D01*
X136785714Y-124071428D01*
X136738095Y-124261904D01*
X136690476Y-124357142D01*
X136642857Y-124404761D01*
X136547619Y-124452380D01*
X136452380Y-124452380D01*
X136357142Y-124404761D01*
X136309523Y-124357142D01*
X136261904Y-124261904D01*
X136214285Y-124071428D01*
X136214285Y-123833333D01*
X136261904Y-123642857D01*
X136309523Y-123547619D01*
X136357142Y-123500000D01*
X136452380Y-123452380D01*
X138595238Y-123928571D02*
X138738095Y-123976190D01*
X138785714Y-124023809D01*
X138833333Y-124119047D01*
X138833333Y-124261904D01*
X138785714Y-124357142D01*
X138738095Y-124404761D01*
X138642857Y-124452380D01*
X138261904Y-124452380D01*
X138261904Y-123452380D01*
X138595238Y-123452380D01*
X138690476Y-123500000D01*
X138738095Y-123547619D01*
X138785714Y-123642857D01*
X138785714Y-123738095D01*
X138738095Y-123833333D01*
X138690476Y-123880952D01*
X138595238Y-123928571D01*
X138261904Y-123928571D01*
X139785714Y-124452380D02*
X139214285Y-124452380D01*
X139500000Y-124452380D02*
X139500000Y-123452380D01*
X139404761Y-123595238D01*
X139309523Y-123690476D01*
X139214285Y-123738095D01*
X176059523Y-100066666D02*
X176535714Y-100066666D01*
X175964285Y-100352380D02*
X176297619Y-99352380D01*
X176630952Y-100352380D01*
X177488095Y-100352380D02*
X176916666Y-100352380D01*
X177202380Y-100352380D02*
X177202380Y-99352380D01*
X177107142Y-99495238D01*
X177011904Y-99590476D01*
X176916666Y-99638095D01*
X178107142Y-99352380D02*
X178202380Y-99352380D01*
X178297619Y-99400000D01*
X178345238Y-99447619D01*
X178392857Y-99542857D01*
X178440476Y-99733333D01*
X178440476Y-99971428D01*
X178392857Y-100161904D01*
X178345238Y-100257142D01*
X178297619Y-100304761D01*
X178202380Y-100352380D01*
X178107142Y-100352380D01*
X178011904Y-100304761D01*
X177964285Y-100257142D01*
X177916666Y-100161904D01*
X177869047Y-99971428D01*
X177869047Y-99733333D01*
X177916666Y-99542857D01*
X177964285Y-99447619D01*
X178011904Y-99400000D01*
X178107142Y-99352380D01*
X164238095Y-125500000D02*
X164142857Y-125452380D01*
X164000000Y-125452380D01*
X163857142Y-125500000D01*
X163761904Y-125595238D01*
X163714285Y-125690476D01*
X163666666Y-125880952D01*
X163666666Y-126023809D01*
X163714285Y-126214285D01*
X163761904Y-126309523D01*
X163857142Y-126404761D01*
X164000000Y-126452380D01*
X164095238Y-126452380D01*
X164238095Y-126404761D01*
X164285714Y-126357142D01*
X164285714Y-126023809D01*
X164095238Y-126023809D01*
X164714285Y-126452380D02*
X164714285Y-125452380D01*
X165285714Y-126452380D01*
X165285714Y-125452380D01*
X165761904Y-126452380D02*
X165761904Y-125452380D01*
X166000000Y-125452380D01*
X166142857Y-125500000D01*
X166238095Y-125595238D01*
X166285714Y-125690476D01*
X166333333Y-125880952D01*
X166333333Y-126023809D01*
X166285714Y-126214285D01*
X166238095Y-126309523D01*
X166142857Y-126404761D01*
X166000000Y-126452380D01*
X165761904Y-126452380D01*
X161833333Y-124357142D02*
X161785714Y-124404761D01*
X161642857Y-124452380D01*
X161547619Y-124452380D01*
X161404761Y-124404761D01*
X161309523Y-124309523D01*
X161261904Y-124214285D01*
X161214285Y-124023809D01*
X161214285Y-123880952D01*
X161261904Y-123690476D01*
X161309523Y-123595238D01*
X161404761Y-123500000D01*
X161547619Y-123452380D01*
X161642857Y-123452380D01*
X161785714Y-123500000D01*
X161833333Y-123547619D01*
X162166666Y-123452380D02*
X162833333Y-123452380D01*
X162404761Y-124452380D01*
X145976190Y-99785714D02*
X145976190Y-100452380D01*
X145738095Y-99404761D02*
X145500000Y-100119047D01*
X146119047Y-100119047D01*
X146500000Y-100357142D02*
X146547619Y-100404761D01*
X146500000Y-100452380D01*
X146452380Y-100404761D01*
X146500000Y-100357142D01*
X146500000Y-100452380D01*
X146880952Y-99452380D02*
X147547619Y-99452380D01*
X147119047Y-100452380D01*
X147928571Y-100452380D02*
X147928571Y-99452380D01*
X148500000Y-100452380D02*
X148071428Y-99880952D01*
X148500000Y-99452380D02*
X147928571Y-100023809D01*
X120037380Y-124952380D02*
X120037380Y-124380952D01*
X121037380Y-124666666D02*
X120037380Y-124666666D01*
X120989761Y-123666666D02*
X121037380Y-123761904D01*
X121037380Y-123952380D01*
X120989761Y-124047619D01*
X120894523Y-124095238D01*
X120513571Y-124095238D01*
X120418333Y-124047619D01*
X120370714Y-123952380D01*
X120370714Y-123761904D01*
X120418333Y-123666666D01*
X120513571Y-123619047D01*
X120608809Y-123619047D01*
X120704047Y-124095238D01*
X120989761Y-122809523D02*
X121037380Y-122904761D01*
X121037380Y-123095238D01*
X120989761Y-123190476D01*
X120894523Y-123238095D01*
X120513571Y-123238095D01*
X120418333Y-123190476D01*
X120370714Y-123095238D01*
X120370714Y-122904761D01*
X120418333Y-122809523D01*
X120513571Y-122761904D01*
X120608809Y-122761904D01*
X120704047Y-123238095D01*
X120370714Y-122333333D02*
X121037380Y-122333333D01*
X120465952Y-122333333D02*
X120418333Y-122285714D01*
X120370714Y-122190476D01*
X120370714Y-122047619D01*
X120418333Y-121952380D01*
X120513571Y-121904761D01*
X121037380Y-121904761D01*
X120989761Y-121476190D02*
X121037380Y-121380952D01*
X121037380Y-121190476D01*
X120989761Y-121095238D01*
X120894523Y-121047619D01*
X120846904Y-121047619D01*
X120751666Y-121095238D01*
X120704047Y-121190476D01*
X120704047Y-121333333D01*
X120656428Y-121428571D01*
X120561190Y-121476190D01*
X120513571Y-121476190D01*
X120418333Y-121428571D01*
X120370714Y-121333333D01*
X120370714Y-121190476D01*
X120418333Y-121095238D01*
X120370714Y-120714285D02*
X121037380Y-120476190D01*
X120370714Y-120238095D02*
X121037380Y-120476190D01*
X121275476Y-120571428D01*
X121323095Y-120619047D01*
X121370714Y-120714285D01*
X120132619Y-119142857D02*
X120085000Y-119095238D01*
X120037380Y-119000000D01*
X120037380Y-118761904D01*
X120085000Y-118666666D01*
X120132619Y-118619047D01*
X120227857Y-118571428D01*
X120323095Y-118571428D01*
X120465952Y-118619047D01*
X121037380Y-119190476D01*
X121037380Y-118571428D01*
X120942142Y-118142857D02*
X120989761Y-118095238D01*
X121037380Y-118142857D01*
X120989761Y-118190476D01*
X120942142Y-118142857D01*
X121037380Y-118142857D01*
X120037380Y-117476190D02*
X120037380Y-117380952D01*
X120085000Y-117285714D01*
X120132619Y-117238095D01*
X120227857Y-117190476D01*
X120418333Y-117142857D01*
X120656428Y-117142857D01*
X120846904Y-117190476D01*
X120942142Y-117238095D01*
X120989761Y-117285714D01*
X121037380Y-117380952D01*
X121037380Y-117476190D01*
X120989761Y-117571428D01*
X120942142Y-117619047D01*
X120846904Y-117666666D01*
X120656428Y-117714285D01*
X120418333Y-117714285D01*
X120227857Y-117666666D01*
X120132619Y-117619047D01*
X120085000Y-117571428D01*
X120037380Y-117476190D01*
X122647380Y-128500000D02*
X121647380Y-128500000D01*
X122361666Y-128166666D01*
X121647380Y-127833333D01*
X122647380Y-127833333D01*
X121980714Y-126928571D02*
X122647380Y-126928571D01*
X121980714Y-127357142D02*
X122504523Y-127357142D01*
X122599761Y-127309523D01*
X122647380Y-127214285D01*
X122647380Y-127071428D01*
X122599761Y-126976190D01*
X122552142Y-126928571D01*
X122647380Y-126309523D02*
X122599761Y-126404761D01*
X122504523Y-126452380D01*
X121647380Y-126452380D01*
X121980714Y-126071428D02*
X121980714Y-125690476D01*
X121647380Y-125928571D02*
X122504523Y-125928571D01*
X122599761Y-125880952D01*
X122647380Y-125785714D01*
X122647380Y-125690476D01*
X122647380Y-125357142D02*
X121980714Y-125357142D01*
X121647380Y-125357142D02*
X121695000Y-125404761D01*
X121742619Y-125357142D01*
X121695000Y-125309523D01*
X121647380Y-125357142D01*
X121742619Y-125357142D01*
X122647380Y-124119047D02*
X121647380Y-124119047D01*
X121647380Y-123738095D01*
X121695000Y-123642857D01*
X121742619Y-123595238D01*
X121837857Y-123547619D01*
X121980714Y-123547619D01*
X122075952Y-123595238D01*
X122123571Y-123642857D01*
X122171190Y-123738095D01*
X122171190Y-124119047D01*
X121980714Y-122690476D02*
X122647380Y-122690476D01*
X121980714Y-123119047D02*
X122504523Y-123119047D01*
X122599761Y-123071428D01*
X122647380Y-122976190D01*
X122647380Y-122833333D01*
X122599761Y-122738095D01*
X122552142Y-122690476D01*
X122647380Y-122214285D02*
X121980714Y-122214285D01*
X122171190Y-122214285D02*
X122075952Y-122166666D01*
X122028333Y-122119047D01*
X121980714Y-122023809D01*
X121980714Y-121928571D01*
X121980714Y-121595238D02*
X122980714Y-121595238D01*
X122028333Y-121595238D02*
X121980714Y-121500000D01*
X121980714Y-121309523D01*
X122028333Y-121214285D01*
X122075952Y-121166666D01*
X122171190Y-121119047D01*
X122456904Y-121119047D01*
X122552142Y-121166666D01*
X122599761Y-121214285D01*
X122647380Y-121309523D01*
X122647380Y-121500000D01*
X122599761Y-121595238D01*
X122647380Y-120547619D02*
X122599761Y-120642857D01*
X122552142Y-120690476D01*
X122456904Y-120738095D01*
X122171190Y-120738095D01*
X122075952Y-120690476D01*
X122028333Y-120642857D01*
X121980714Y-120547619D01*
X121980714Y-120404761D01*
X122028333Y-120309523D01*
X122075952Y-120261904D01*
X122171190Y-120214285D01*
X122456904Y-120214285D01*
X122552142Y-120261904D01*
X122599761Y-120309523D01*
X122647380Y-120404761D01*
X122647380Y-120547619D01*
X122599761Y-119833333D02*
X122647380Y-119738095D01*
X122647380Y-119547619D01*
X122599761Y-119452380D01*
X122504523Y-119404761D01*
X122456904Y-119404761D01*
X122361666Y-119452380D01*
X122314047Y-119547619D01*
X122314047Y-119690476D01*
X122266428Y-119785714D01*
X122171190Y-119833333D01*
X122123571Y-119833333D01*
X122028333Y-119785714D01*
X121980714Y-119690476D01*
X121980714Y-119547619D01*
X122028333Y-119452380D01*
X122599761Y-118595238D02*
X122647380Y-118690476D01*
X122647380Y-118880952D01*
X122599761Y-118976190D01*
X122504523Y-119023809D01*
X122123571Y-119023809D01*
X122028333Y-118976190D01*
X121980714Y-118880952D01*
X121980714Y-118690476D01*
X122028333Y-118595238D01*
X122123571Y-118547619D01*
X122218809Y-118547619D01*
X122314047Y-119023809D01*
X122123571Y-117023809D02*
X122171190Y-116880952D01*
X122218809Y-116833333D01*
X122314047Y-116785714D01*
X122456904Y-116785714D01*
X122552142Y-116833333D01*
X122599761Y-116880952D01*
X122647380Y-116976190D01*
X122647380Y-117357142D01*
X121647380Y-117357142D01*
X121647380Y-117023809D01*
X121695000Y-116928571D01*
X121742619Y-116880952D01*
X121837857Y-116833333D01*
X121933095Y-116833333D01*
X122028333Y-116880952D01*
X122075952Y-116928571D01*
X122123571Y-117023809D01*
X122123571Y-117357142D01*
X122647380Y-116214285D02*
X122599761Y-116309523D01*
X122552142Y-116357142D01*
X122456904Y-116404761D01*
X122171190Y-116404761D01*
X122075952Y-116357142D01*
X122028333Y-116309523D01*
X121980714Y-116214285D01*
X121980714Y-116071428D01*
X122028333Y-115976190D01*
X122075952Y-115928571D01*
X122171190Y-115880952D01*
X122456904Y-115880952D01*
X122552142Y-115928571D01*
X122599761Y-115976190D01*
X122647380Y-116071428D01*
X122647380Y-116214285D01*
X122647380Y-115023809D02*
X122123571Y-115023809D01*
X122028333Y-115071428D01*
X121980714Y-115166666D01*
X121980714Y-115357142D01*
X122028333Y-115452380D01*
X122599761Y-115023809D02*
X122647380Y-115119047D01*
X122647380Y-115357142D01*
X122599761Y-115452380D01*
X122504523Y-115500000D01*
X122409285Y-115500000D01*
X122314047Y-115452380D01*
X122266428Y-115357142D01*
X122266428Y-115119047D01*
X122218809Y-115023809D01*
X122647380Y-114547619D02*
X121980714Y-114547619D01*
X122171190Y-114547619D02*
X122075952Y-114500000D01*
X122028333Y-114452380D01*
X121980714Y-114357142D01*
X121980714Y-114261904D01*
X122647380Y-113500000D02*
X121647380Y-113500000D01*
X122599761Y-113500000D02*
X122647380Y-113595238D01*
X122647380Y-113785714D01*
X122599761Y-113880952D01*
X122552142Y-113928571D01*
X122456904Y-113976190D01*
X122171190Y-113976190D01*
X122075952Y-113928571D01*
X122028333Y-113880952D01*
X121980714Y-113785714D01*
X121980714Y-113595238D01*
X122028333Y-113500000D01*
X124257380Y-126214285D02*
X123781190Y-126547619D01*
X124257380Y-126785714D02*
X123257380Y-126785714D01*
X123257380Y-126404761D01*
X123305000Y-126309523D01*
X123352619Y-126261904D01*
X123447857Y-126214285D01*
X123590714Y-126214285D01*
X123685952Y-126261904D01*
X123733571Y-126309523D01*
X123781190Y-126404761D01*
X123781190Y-126785714D01*
X124209761Y-125404761D02*
X124257380Y-125500000D01*
X124257380Y-125690476D01*
X124209761Y-125785714D01*
X124114523Y-125833333D01*
X123733571Y-125833333D01*
X123638333Y-125785714D01*
X123590714Y-125690476D01*
X123590714Y-125500000D01*
X123638333Y-125404761D01*
X123733571Y-125357142D01*
X123828809Y-125357142D01*
X123924047Y-125833333D01*
X123590714Y-125071428D02*
X123590714Y-124690476D01*
X123257380Y-124928571D02*
X124114523Y-124928571D01*
X124209761Y-124880952D01*
X124257380Y-124785714D01*
X124257380Y-124690476D01*
X124257380Y-124357142D02*
X123590714Y-124357142D01*
X123781190Y-124357142D02*
X123685952Y-124309523D01*
X123638333Y-124261904D01*
X123590714Y-124166666D01*
X123590714Y-124071428D01*
X124257380Y-123595238D02*
X124209761Y-123690476D01*
X124162142Y-123738095D01*
X124066904Y-123785714D01*
X123781190Y-123785714D01*
X123685952Y-123738095D01*
X123638333Y-123690476D01*
X123590714Y-123595238D01*
X123590714Y-123452380D01*
X123638333Y-123357142D01*
X123685952Y-123309523D01*
X123781190Y-123261904D01*
X124066904Y-123261904D01*
X124162142Y-123309523D01*
X124209761Y-123357142D01*
X124257380Y-123452380D01*
X124257380Y-123595238D01*
X123257380Y-122928571D02*
X123257380Y-122261904D01*
X124257380Y-122928571D01*
X124257380Y-122261904D01*
X124257380Y-121738095D02*
X124209761Y-121833333D01*
X124162142Y-121880952D01*
X124066904Y-121928571D01*
X123781190Y-121928571D01*
X123685952Y-121880952D01*
X123638333Y-121833333D01*
X123590714Y-121738095D01*
X123590714Y-121595238D01*
X123638333Y-121500000D01*
X123685952Y-121452380D01*
X123781190Y-121404761D01*
X124066904Y-121404761D01*
X124162142Y-121452380D01*
X124209761Y-121500000D01*
X124257380Y-121595238D01*
X124257380Y-121738095D01*
X124209761Y-120547619D02*
X124257380Y-120642857D01*
X124257380Y-120833333D01*
X124209761Y-120928571D01*
X124162142Y-120976190D01*
X124066904Y-121023809D01*
X123781190Y-121023809D01*
X123685952Y-120976190D01*
X123638333Y-120928571D01*
X123590714Y-120833333D01*
X123590714Y-120642857D01*
X123638333Y-120547619D01*
X124257380Y-120119047D02*
X123257380Y-120119047D01*
X123876428Y-120023809D02*
X124257380Y-119738095D01*
X123590714Y-119738095D02*
X123971666Y-120119047D01*
X123352619Y-118595238D02*
X123305000Y-118547619D01*
X123257380Y-118452380D01*
X123257380Y-118214285D01*
X123305000Y-118119047D01*
X123352619Y-118071428D01*
X123447857Y-118023809D01*
X123543095Y-118023809D01*
X123685952Y-118071428D01*
X124257380Y-118642857D01*
X124257380Y-118023809D01*
X123257380Y-117404761D02*
X123257380Y-117309523D01*
X123305000Y-117214285D01*
X123352619Y-117166666D01*
X123447857Y-117119047D01*
X123638333Y-117071428D01*
X123876428Y-117071428D01*
X124066904Y-117119047D01*
X124162142Y-117166666D01*
X124209761Y-117214285D01*
X124257380Y-117309523D01*
X124257380Y-117404761D01*
X124209761Y-117500000D01*
X124162142Y-117547619D01*
X124066904Y-117595238D01*
X123876428Y-117642857D01*
X123638333Y-117642857D01*
X123447857Y-117595238D01*
X123352619Y-117547619D01*
X123305000Y-117500000D01*
X123257380Y-117404761D01*
X123352619Y-116690476D02*
X123305000Y-116642857D01*
X123257380Y-116547619D01*
X123257380Y-116309523D01*
X123305000Y-116214285D01*
X123352619Y-116166666D01*
X123447857Y-116119047D01*
X123543095Y-116119047D01*
X123685952Y-116166666D01*
X124257380Y-116738095D01*
X124257380Y-116119047D01*
X123352619Y-115738095D02*
X123305000Y-115690476D01*
X123257380Y-115595238D01*
X123257380Y-115357142D01*
X123305000Y-115261904D01*
X123352619Y-115214285D01*
X123447857Y-115166666D01*
X123543095Y-115166666D01*
X123685952Y-115214285D01*
X124257380Y-115785714D01*
X124257380Y-115166666D01*
X124867380Y-123238095D02*
X125867380Y-122904761D01*
X124867380Y-122571428D01*
X125867380Y-121714285D02*
X125867380Y-122285714D01*
X125867380Y-122000000D02*
X124867380Y-122000000D01*
X125010238Y-122095238D01*
X125105476Y-122190476D01*
X125153095Y-122285714D01*
X125772142Y-121285714D02*
X125819761Y-121238095D01*
X125867380Y-121285714D01*
X125819761Y-121333333D01*
X125772142Y-121285714D01*
X125867380Y-121285714D01*
X124867380Y-120619047D02*
X124867380Y-120523809D01*
X124915000Y-120428571D01*
X124962619Y-120380952D01*
X125057857Y-120333333D01*
X125248333Y-120285714D01*
X125486428Y-120285714D01*
X125676904Y-120333333D01*
X125772142Y-120380952D01*
X125819761Y-120428571D01*
X125867380Y-120523809D01*
X125867380Y-120619047D01*
X125819761Y-120714285D01*
X125772142Y-120761904D01*
X125676904Y-120809523D01*
X125486428Y-120857142D01*
X125248333Y-120857142D01*
X125057857Y-120809523D01*
X124962619Y-120761904D01*
X124915000Y-120714285D01*
X124867380Y-120619047D01*
X125772142Y-119857142D02*
X125819761Y-119809523D01*
X125867380Y-119857142D01*
X125819761Y-119904761D01*
X125772142Y-119857142D01*
X125867380Y-119857142D01*
X124867380Y-119190476D02*
X124867380Y-119095238D01*
X124915000Y-119000000D01*
X124962619Y-118952380D01*
X125057857Y-118904761D01*
X125248333Y-118857142D01*
X125486428Y-118857142D01*
X125676904Y-118904761D01*
X125772142Y-118952380D01*
X125819761Y-119000000D01*
X125867380Y-119095238D01*
X125867380Y-119190476D01*
X125819761Y-119285714D01*
X125772142Y-119333333D01*
X125676904Y-119380952D01*
X125486428Y-119428571D01*
X125248333Y-119428571D01*
X125057857Y-119380952D01*
X124962619Y-119333333D01*
X124915000Y-119285714D01*
X124867380Y-119190476D01*
X143238095Y-97452380D02*
X143571428Y-98452380D01*
X143904761Y-97452380D01*
X144809523Y-98357142D02*
X144761904Y-98404761D01*
X144619047Y-98452380D01*
X144523809Y-98452380D01*
X144380952Y-98404761D01*
X144285714Y-98309523D01*
X144238095Y-98214285D01*
X144190476Y-98023809D01*
X144190476Y-97880952D01*
X144238095Y-97690476D01*
X144285714Y-97595238D01*
X144380952Y-97500000D01*
X144523809Y-97452380D01*
X144619047Y-97452380D01*
X144761904Y-97500000D01*
X144809523Y-97547619D01*
X145809523Y-98357142D02*
X145761904Y-98404761D01*
X145619047Y-98452380D01*
X145523809Y-98452380D01*
X145380952Y-98404761D01*
X145285714Y-98309523D01*
X145238095Y-98214285D01*
X145190476Y-98023809D01*
X145190476Y-97880952D01*
X145238095Y-97690476D01*
X145285714Y-97595238D01*
X145380952Y-97500000D01*
X145523809Y-97452380D01*
X145619047Y-97452380D01*
X145761904Y-97500000D01*
X145809523Y-97547619D01*
X147476190Y-98452380D02*
X147000000Y-98452380D01*
X147000000Y-97452380D01*
X147952380Y-98452380D02*
X147857142Y-98404761D01*
X147809523Y-98357142D01*
X147761904Y-98261904D01*
X147761904Y-97976190D01*
X147809523Y-97880952D01*
X147857142Y-97833333D01*
X147952380Y-97785714D01*
X148095238Y-97785714D01*
X148190476Y-97833333D01*
X148238095Y-97880952D01*
X148285714Y-97976190D01*
X148285714Y-98261904D01*
X148238095Y-98357142D01*
X148190476Y-98404761D01*
X148095238Y-98452380D01*
X147952380Y-98452380D01*
X148619047Y-97785714D02*
X148809523Y-98452380D01*
X149000000Y-97976190D01*
X149190476Y-98452380D01*
X149380952Y-97785714D01*
X150714285Y-97452380D02*
X150904761Y-97452380D01*
X151000000Y-97500000D01*
X151095238Y-97595238D01*
X151142857Y-97785714D01*
X151142857Y-98119047D01*
X151095238Y-98309523D01*
X151000000Y-98404761D01*
X150904761Y-98452380D01*
X150714285Y-98452380D01*
X150619047Y-98404761D01*
X150523809Y-98309523D01*
X150476190Y-98119047D01*
X150476190Y-97785714D01*
X150523809Y-97595238D01*
X150619047Y-97500000D01*
X150714285Y-97452380D01*
X152000000Y-97785714D02*
X152000000Y-98452380D01*
X151571428Y-97785714D02*
X151571428Y-98309523D01*
X151619047Y-98404761D01*
X151714285Y-98452380D01*
X151857142Y-98452380D01*
X151952380Y-98404761D01*
X152000000Y-98357142D01*
X152333333Y-97785714D02*
X152714285Y-97785714D01*
X152476190Y-97452380D02*
X152476190Y-98309523D01*
X152523809Y-98404761D01*
X152619047Y-98452380D01*
X152714285Y-98452380D01*
X154095238Y-98833333D02*
X154047619Y-98785714D01*
X153952380Y-98642857D01*
X153904761Y-98547619D01*
X153857142Y-98404761D01*
X153809523Y-98166666D01*
X153809523Y-97976190D01*
X153857142Y-97738095D01*
X153904761Y-97595238D01*
X153952380Y-97500000D01*
X154047619Y-97357142D01*
X154095238Y-97309523D01*
X154809523Y-97928571D02*
X154952380Y-97976190D01*
X155000000Y-98023809D01*
X155047619Y-98119047D01*
X155047619Y-98261904D01*
X155000000Y-98357142D01*
X154952380Y-98404761D01*
X154857142Y-98452380D01*
X154476190Y-98452380D01*
X154476190Y-97452380D01*
X154809523Y-97452380D01*
X154904761Y-97500000D01*
X154952380Y-97547619D01*
X155000000Y-97642857D01*
X155000000Y-97738095D01*
X154952380Y-97833333D01*
X154904761Y-97880952D01*
X154809523Y-97928571D01*
X154476190Y-97928571D01*
X156000000Y-98452380D02*
X155428571Y-98452380D01*
X155714285Y-98452380D02*
X155714285Y-97452380D01*
X155619047Y-97595238D01*
X155523809Y-97690476D01*
X155428571Y-97738095D01*
X156333333Y-98833333D02*
X156380952Y-98785714D01*
X156476190Y-98642857D01*
X156523809Y-98547619D01*
X156571428Y-98404761D01*
X156619047Y-98166666D01*
X156619047Y-97976190D01*
X156571428Y-97738095D01*
X156523809Y-97595238D01*
X156476190Y-97500000D01*
X156380952Y-97357142D01*
X156333333Y-97309523D01*
X168271428Y-90166666D02*
X168747619Y-90166666D01*
X168176190Y-90452380D02*
X168509523Y-89452380D01*
X168842857Y-90452380D01*
X169604761Y-90404761D02*
X169509523Y-90452380D01*
X169319047Y-90452380D01*
X169223809Y-90404761D01*
X169176190Y-90357142D01*
X169128571Y-90261904D01*
X169128571Y-89976190D01*
X169176190Y-89880952D01*
X169223809Y-89833333D01*
X169319047Y-89785714D01*
X169509523Y-89785714D01*
X169604761Y-89833333D01*
X169890476Y-89785714D02*
X170271428Y-89785714D01*
X170033333Y-89452380D02*
X170033333Y-90309523D01*
X170080952Y-90404761D01*
X170176190Y-90452380D01*
X170271428Y-90452380D01*
X170604761Y-90452380D02*
X170604761Y-89785714D01*
X170604761Y-89452380D02*
X170557142Y-89500000D01*
X170604761Y-89547619D01*
X170652380Y-89500000D01*
X170604761Y-89452380D01*
X170604761Y-89547619D01*
X170985714Y-89785714D02*
X171223809Y-90452380D01*
X171461904Y-89785714D01*
X172223809Y-90404761D02*
X172128571Y-90452380D01*
X171938095Y-90452380D01*
X171842857Y-90404761D01*
X171795238Y-90309523D01*
X171795238Y-89928571D01*
X171842857Y-89833333D01*
X171938095Y-89785714D01*
X172128571Y-89785714D01*
X172223809Y-89833333D01*
X172271428Y-89928571D01*
X172271428Y-90023809D01*
X171795238Y-90119047D01*
X173414285Y-90404761D02*
X173557142Y-90452380D01*
X173795238Y-90452380D01*
X173890476Y-90404761D01*
X173938095Y-90357142D01*
X173985714Y-90261904D01*
X173985714Y-90166666D01*
X173938095Y-90071428D01*
X173890476Y-90023809D01*
X173795238Y-89976190D01*
X173604761Y-89928571D01*
X173509523Y-89880952D01*
X173461904Y-89833333D01*
X173414285Y-89738095D01*
X173414285Y-89642857D01*
X173461904Y-89547619D01*
X173509523Y-89500000D01*
X173604761Y-89452380D01*
X173842857Y-89452380D01*
X173985714Y-89500000D01*
X174271428Y-89785714D02*
X174652380Y-89785714D01*
X174414285Y-89452380D02*
X174414285Y-90309523D01*
X174461904Y-90404761D01*
X174557142Y-90452380D01*
X174652380Y-90452380D01*
X175414285Y-90452380D02*
X175414285Y-89928571D01*
X175366666Y-89833333D01*
X175271428Y-89785714D01*
X175080952Y-89785714D01*
X174985714Y-89833333D01*
X175414285Y-90404761D02*
X175319047Y-90452380D01*
X175080952Y-90452380D01*
X174985714Y-90404761D01*
X174938095Y-90309523D01*
X174938095Y-90214285D01*
X174985714Y-90119047D01*
X175080952Y-90071428D01*
X175319047Y-90071428D01*
X175414285Y-90023809D01*
X175747619Y-89785714D02*
X176128571Y-89785714D01*
X175890476Y-89452380D02*
X175890476Y-90309523D01*
X175938095Y-90404761D01*
X176033333Y-90452380D01*
X176128571Y-90452380D01*
X176842857Y-90404761D02*
X176747619Y-90452380D01*
X176557142Y-90452380D01*
X176461904Y-90404761D01*
X176414285Y-90309523D01*
X176414285Y-89928571D01*
X176461904Y-89833333D01*
X176557142Y-89785714D01*
X176747619Y-89785714D01*
X176842857Y-89833333D01*
X176890476Y-89928571D01*
X176890476Y-90023809D01*
X176414285Y-90119047D01*
X178557142Y-90452380D02*
X178080952Y-90452380D01*
X178080952Y-89452380D01*
X179080952Y-89452380D02*
X179271428Y-89452380D01*
X179366666Y-89500000D01*
X179461904Y-89595238D01*
X179509523Y-89785714D01*
X179509523Y-90119047D01*
X179461904Y-90309523D01*
X179366666Y-90404761D01*
X179271428Y-90452380D01*
X179080952Y-90452380D01*
X178985714Y-90404761D01*
X178890476Y-90309523D01*
X178842857Y-90119047D01*
X178842857Y-89785714D01*
X178890476Y-89595238D01*
X178985714Y-89500000D01*
X179080952Y-89452380D01*
X179842857Y-89452380D02*
X180080952Y-90452380D01*
X180271428Y-89738095D01*
X180461904Y-90452380D01*
X180700000Y-89452380D01*
X181080952Y-90357142D02*
X181128571Y-90404761D01*
X181080952Y-90452380D01*
X181033333Y-90404761D01*
X181080952Y-90357142D01*
X181080952Y-90452380D01*
X181080952Y-90071428D02*
X181033333Y-89500000D01*
X181080952Y-89452380D01*
X181128571Y-89500000D01*
X181080952Y-90071428D01*
X181080952Y-89452380D01*
X143616666Y-126452380D02*
X143950000Y-127452380D01*
X144283333Y-126452380D01*
X145188095Y-127357142D02*
X145140476Y-127404761D01*
X144997619Y-127452380D01*
X144902380Y-127452380D01*
X144759523Y-127404761D01*
X144664285Y-127309523D01*
X144616666Y-127214285D01*
X144569047Y-127023809D01*
X144569047Y-126880952D01*
X144616666Y-126690476D01*
X144664285Y-126595238D01*
X144759523Y-126500000D01*
X144902380Y-126452380D01*
X144997619Y-126452380D01*
X145140476Y-126500000D01*
X145188095Y-126547619D01*
X146188095Y-127357142D02*
X146140476Y-127404761D01*
X145997619Y-127452380D01*
X145902380Y-127452380D01*
X145759523Y-127404761D01*
X145664285Y-127309523D01*
X145616666Y-127214285D01*
X145569047Y-127023809D01*
X145569047Y-126880952D01*
X145616666Y-126690476D01*
X145664285Y-126595238D01*
X145759523Y-126500000D01*
X145902380Y-126452380D01*
X145997619Y-126452380D01*
X146140476Y-126500000D01*
X146188095Y-126547619D01*
X181633333Y-99552142D02*
X181585714Y-99599761D01*
X181442857Y-99647380D01*
X181347619Y-99647380D01*
X181204761Y-99599761D01*
X181109523Y-99504523D01*
X181061904Y-99409285D01*
X181014285Y-99218809D01*
X181014285Y-99075952D01*
X181061904Y-98885476D01*
X181109523Y-98790238D01*
X181204761Y-98695000D01*
X181347619Y-98647380D01*
X181442857Y-98647380D01*
X181585714Y-98695000D01*
X181633333Y-98742619D01*
X181966666Y-98647380D02*
X182633333Y-98647380D01*
X182204761Y-99647380D01*
X180395238Y-101257380D02*
X180395238Y-100257380D01*
X180776190Y-100257380D01*
X180871428Y-100305000D01*
X180919047Y-100352619D01*
X180966666Y-100447857D01*
X180966666Y-100590714D01*
X180919047Y-100685952D01*
X180871428Y-100733571D01*
X180776190Y-100781190D01*
X180395238Y-100781190D01*
X181395238Y-101257380D02*
X181395238Y-100257380D01*
X181728571Y-100971666D01*
X182061904Y-100257380D01*
X182061904Y-101257380D01*
X182442857Y-100257380D02*
X182680952Y-101257380D01*
X182871428Y-100543095D01*
X183061904Y-101257380D01*
X183300000Y-100257380D01*
X164188095Y-108500000D02*
X164092857Y-108452380D01*
X163950000Y-108452380D01*
X163807142Y-108500000D01*
X163711904Y-108595238D01*
X163664285Y-108690476D01*
X163616666Y-108880952D01*
X163616666Y-109023809D01*
X163664285Y-109214285D01*
X163711904Y-109309523D01*
X163807142Y-109404761D01*
X163950000Y-109452380D01*
X164045238Y-109452380D01*
X164188095Y-109404761D01*
X164235714Y-109357142D01*
X164235714Y-109023809D01*
X164045238Y-109023809D01*
X164664285Y-109452380D02*
X164664285Y-108452380D01*
X165235714Y-109452380D01*
X165235714Y-108452380D01*
X165711904Y-109452380D02*
X165711904Y-108452380D01*
X165950000Y-108452380D01*
X166092857Y-108500000D01*
X166188095Y-108595238D01*
X166235714Y-108690476D01*
X166283333Y-108880952D01*
X166283333Y-109023809D01*
X166235714Y-109214285D01*
X166188095Y-109309523D01*
X166092857Y-109404761D01*
X165950000Y-109452380D01*
X165711904Y-109452380D01*
X158285714Y-104166666D02*
X158761904Y-104166666D01*
X158190476Y-104452380D02*
X158523809Y-103452380D01*
X158857142Y-104452380D01*
X159238095Y-104452380D02*
X159428571Y-104452380D01*
X159523809Y-104404761D01*
X159571428Y-104357142D01*
X159666666Y-104214285D01*
X159714285Y-104023809D01*
X159714285Y-103642857D01*
X159666666Y-103547619D01*
X159619047Y-103500000D01*
X159523809Y-103452380D01*
X159333333Y-103452380D01*
X159238095Y-103500000D01*
X159190476Y-103547619D01*
X159142857Y-103642857D01*
X159142857Y-103880952D01*
X159190476Y-103976190D01*
X159238095Y-104023809D01*
X159333333Y-104071428D01*
X159523809Y-104071428D01*
X159619047Y-104023809D01*
X159666666Y-103976190D01*
X159714285Y-103880952D01*
X123866666Y-92827380D02*
X124200000Y-93827380D01*
X124533333Y-92827380D01*
X125438095Y-93732142D02*
X125390476Y-93779761D01*
X125247619Y-93827380D01*
X125152380Y-93827380D01*
X125009523Y-93779761D01*
X124914285Y-93684523D01*
X124866666Y-93589285D01*
X124819047Y-93398809D01*
X124819047Y-93255952D01*
X124866666Y-93065476D01*
X124914285Y-92970238D01*
X125009523Y-92875000D01*
X125152380Y-92827380D01*
X125247619Y-92827380D01*
X125390476Y-92875000D01*
X125438095Y-92922619D01*
X126438095Y-93732142D02*
X126390476Y-93779761D01*
X126247619Y-93827380D01*
X126152380Y-93827380D01*
X126009523Y-93779761D01*
X125914285Y-93684523D01*
X125866666Y-93589285D01*
X125819047Y-93398809D01*
X125819047Y-93255952D01*
X125866666Y-93065476D01*
X125914285Y-92970238D01*
X126009523Y-92875000D01*
X126152380Y-92827380D01*
X126247619Y-92827380D01*
X126390476Y-92875000D01*
X126438095Y-92922619D01*
X171785714Y-110027380D02*
X172404761Y-110027380D01*
X172071428Y-110408333D01*
X172214285Y-110408333D01*
X172309523Y-110455952D01*
X172357142Y-110503571D01*
X172404761Y-110598809D01*
X172404761Y-110836904D01*
X172357142Y-110932142D01*
X172309523Y-110979761D01*
X172214285Y-111027380D01*
X171928571Y-111027380D01*
X171833333Y-110979761D01*
X171785714Y-110932142D01*
X172833333Y-110932142D02*
X172880952Y-110979761D01*
X172833333Y-111027380D01*
X172785714Y-110979761D01*
X172833333Y-110932142D01*
X172833333Y-111027380D01*
X173214285Y-110027380D02*
X173833333Y-110027380D01*
X173500000Y-110408333D01*
X173642857Y-110408333D01*
X173738095Y-110455952D01*
X173785714Y-110503571D01*
X173833333Y-110598809D01*
X173833333Y-110836904D01*
X173785714Y-110932142D01*
X173738095Y-110979761D01*
X173642857Y-111027380D01*
X173357142Y-111027380D01*
X173261904Y-110979761D01*
X173214285Y-110932142D01*
X174119047Y-110027380D02*
X174452380Y-111027380D01*
X174785714Y-110027380D01*
X176214285Y-110503571D02*
X176357142Y-110551190D01*
X176404761Y-110598809D01*
X176452380Y-110694047D01*
X176452380Y-110836904D01*
X176404761Y-110932142D01*
X176357142Y-110979761D01*
X176261904Y-111027380D01*
X175880952Y-111027380D01*
X175880952Y-110027380D01*
X176214285Y-110027380D01*
X176309523Y-110075000D01*
X176357142Y-110122619D01*
X176404761Y-110217857D01*
X176404761Y-110313095D01*
X176357142Y-110408333D01*
X176309523Y-110455952D01*
X176214285Y-110503571D01*
X175880952Y-110503571D01*
X177309523Y-110360714D02*
X177309523Y-111027380D01*
X176880952Y-110360714D02*
X176880952Y-110884523D01*
X176928571Y-110979761D01*
X177023809Y-111027380D01*
X177166666Y-111027380D01*
X177261904Y-110979761D01*
X177309523Y-110932142D01*
X177738095Y-110979761D02*
X177833333Y-111027380D01*
X178023809Y-111027380D01*
X178119047Y-110979761D01*
X178166666Y-110884523D01*
X178166666Y-110836904D01*
X178119047Y-110741666D01*
X178023809Y-110694047D01*
X177880952Y-110694047D01*
X177785714Y-110646428D01*
X177738095Y-110551190D01*
X177738095Y-110503571D01*
X177785714Y-110408333D01*
X177880952Y-110360714D01*
X178023809Y-110360714D01*
X178119047Y-110408333D01*
X131666666Y-103452380D02*
X132000000Y-104452380D01*
X132333333Y-103452380D01*
X133238095Y-104357142D02*
X133190476Y-104404761D01*
X133047619Y-104452380D01*
X132952380Y-104452380D01*
X132809523Y-104404761D01*
X132714285Y-104309523D01*
X132666666Y-104214285D01*
X132619047Y-104023809D01*
X132619047Y-103880952D01*
X132666666Y-103690476D01*
X132714285Y-103595238D01*
X132809523Y-103500000D01*
X132952380Y-103452380D01*
X133047619Y-103452380D01*
X133190476Y-103500000D01*
X133238095Y-103547619D01*
X134238095Y-104357142D02*
X134190476Y-104404761D01*
X134047619Y-104452380D01*
X133952380Y-104452380D01*
X133809523Y-104404761D01*
X133714285Y-104309523D01*
X133666666Y-104214285D01*
X133619047Y-104023809D01*
X133619047Y-103880952D01*
X133666666Y-103690476D01*
X133714285Y-103595238D01*
X133809523Y-103500000D01*
X133952380Y-103452380D01*
X134047619Y-103452380D01*
X134190476Y-103500000D01*
X134238095Y-103547619D01*
X136258333Y-127452380D02*
X135925000Y-126976190D01*
X135686904Y-127452380D02*
X135686904Y-126452380D01*
X136067857Y-126452380D01*
X136163095Y-126500000D01*
X136210714Y-126547619D01*
X136258333Y-126642857D01*
X136258333Y-126785714D01*
X136210714Y-126880952D01*
X136163095Y-126928571D01*
X136067857Y-126976190D01*
X135686904Y-126976190D01*
X136591666Y-126452380D02*
X137258333Y-127452380D01*
X137258333Y-126452380D02*
X136591666Y-127452380D01*
X163809523Y-114779761D02*
X163952380Y-114827380D01*
X164190476Y-114827380D01*
X164285714Y-114779761D01*
X164333333Y-114732142D01*
X164380952Y-114636904D01*
X164380952Y-114541666D01*
X164333333Y-114446428D01*
X164285714Y-114398809D01*
X164190476Y-114351190D01*
X164000000Y-114303571D01*
X163904761Y-114255952D01*
X163857142Y-114208333D01*
X163809523Y-114113095D01*
X163809523Y-114017857D01*
X163857142Y-113922619D01*
X163904761Y-113875000D01*
X164000000Y-113827380D01*
X164238095Y-113827380D01*
X164380952Y-113875000D01*
X165380952Y-114732142D02*
X165333333Y-114779761D01*
X165190476Y-114827380D01*
X165095238Y-114827380D01*
X164952380Y-114779761D01*
X164857142Y-114684523D01*
X164809523Y-114589285D01*
X164761904Y-114398809D01*
X164761904Y-114255952D01*
X164809523Y-114065476D01*
X164857142Y-113970238D01*
X164952380Y-113875000D01*
X165095238Y-113827380D01*
X165190476Y-113827380D01*
X165333333Y-113875000D01*
X165380952Y-113922619D01*
X166285714Y-114827380D02*
X165809523Y-114827380D01*
X165809523Y-113827380D01*
X163785714Y-123404761D02*
X163928571Y-123452380D01*
X164166666Y-123452380D01*
X164261904Y-123404761D01*
X164309523Y-123357142D01*
X164357142Y-123261904D01*
X164357142Y-123166666D01*
X164309523Y-123071428D01*
X164261904Y-123023809D01*
X164166666Y-122976190D01*
X163976190Y-122928571D01*
X163880952Y-122880952D01*
X163833333Y-122833333D01*
X163785714Y-122738095D01*
X163785714Y-122642857D01*
X163833333Y-122547619D01*
X163880952Y-122500000D01*
X163976190Y-122452380D01*
X164214285Y-122452380D01*
X164357142Y-122500000D01*
X164785714Y-123452380D02*
X164785714Y-122452380D01*
X165023809Y-122452380D01*
X165166666Y-122500000D01*
X165261904Y-122595238D01*
X165309523Y-122690476D01*
X165357142Y-122880952D01*
X165357142Y-123023809D01*
X165309523Y-123214285D01*
X165261904Y-123309523D01*
X165166666Y-123404761D01*
X165023809Y-123452380D01*
X164785714Y-123452380D01*
X165738095Y-123166666D02*
X166214285Y-123166666D01*
X165642857Y-123452380D02*
X165976190Y-122452380D01*
X166309523Y-123452380D01*
X171071428Y-87500000D02*
X170976190Y-87452380D01*
X170833333Y-87452380D01*
X170690476Y-87500000D01*
X170595238Y-87595238D01*
X170547619Y-87690476D01*
X170500000Y-87880952D01*
X170500000Y-88023809D01*
X170547619Y-88214285D01*
X170595238Y-88309523D01*
X170690476Y-88404761D01*
X170833333Y-88452380D01*
X170928571Y-88452380D01*
X171071428Y-88404761D01*
X171119047Y-88357142D01*
X171119047Y-88023809D01*
X170928571Y-88023809D01*
X171547619Y-88452380D02*
X171547619Y-87452380D01*
X171928571Y-87452380D01*
X172023809Y-87500000D01*
X172071428Y-87547619D01*
X172119047Y-87642857D01*
X172119047Y-87785714D01*
X172071428Y-87880952D01*
X172023809Y-87928571D01*
X171928571Y-87976190D01*
X171547619Y-87976190D01*
X172547619Y-88452380D02*
X172547619Y-87452380D01*
X173214285Y-87452380D02*
X173404761Y-87452380D01*
X173500000Y-87500000D01*
X173595238Y-87595238D01*
X173642857Y-87785714D01*
X173642857Y-88119047D01*
X173595238Y-88309523D01*
X173500000Y-88404761D01*
X173404761Y-88452380D01*
X173214285Y-88452380D01*
X173119047Y-88404761D01*
X173023809Y-88309523D01*
X172976190Y-88119047D01*
X172976190Y-87785714D01*
X173023809Y-87595238D01*
X173119047Y-87500000D01*
X173214285Y-87452380D01*
X174833333Y-88452380D02*
X174833333Y-87452380D01*
X175214285Y-87452380D01*
X175309523Y-87500000D01*
X175357142Y-87547619D01*
X175404761Y-87642857D01*
X175404761Y-87785714D01*
X175357142Y-87880952D01*
X175309523Y-87928571D01*
X175214285Y-87976190D01*
X174833333Y-87976190D01*
X175976190Y-88452380D02*
X175880952Y-88404761D01*
X175833333Y-88357142D01*
X175785714Y-88261904D01*
X175785714Y-87976190D01*
X175833333Y-87880952D01*
X175880952Y-87833333D01*
X175976190Y-87785714D01*
X176119047Y-87785714D01*
X176214285Y-87833333D01*
X176261904Y-87880952D01*
X176309523Y-87976190D01*
X176309523Y-88261904D01*
X176261904Y-88357142D01*
X176214285Y-88404761D01*
X176119047Y-88452380D01*
X175976190Y-88452380D01*
X176738095Y-88452380D02*
X176738095Y-87785714D01*
X176738095Y-87976190D02*
X176785714Y-87880952D01*
X176833333Y-87833333D01*
X176928571Y-87785714D01*
X177023809Y-87785714D01*
X177214285Y-87785714D02*
X177595238Y-87785714D01*
X177357142Y-87452380D02*
X177357142Y-88309523D01*
X177404761Y-88404761D01*
X177500000Y-88452380D01*
X177595238Y-88452380D01*
X163523809Y-106202380D02*
X164142857Y-106202380D01*
X163809523Y-106583333D01*
X163952380Y-106583333D01*
X164047619Y-106630952D01*
X164095238Y-106678571D01*
X164142857Y-106773809D01*
X164142857Y-107011904D01*
X164095238Y-107107142D01*
X164047619Y-107154761D01*
X163952380Y-107202380D01*
X163666666Y-107202380D01*
X163571428Y-107154761D01*
X163523809Y-107107142D01*
X164571428Y-107107142D02*
X164619047Y-107154761D01*
X164571428Y-107202380D01*
X164523809Y-107154761D01*
X164571428Y-107107142D01*
X164571428Y-107202380D01*
X164952380Y-106202380D02*
X165571428Y-106202380D01*
X165238095Y-106583333D01*
X165380952Y-106583333D01*
X165476190Y-106630952D01*
X165523809Y-106678571D01*
X165571428Y-106773809D01*
X165571428Y-107011904D01*
X165523809Y-107107142D01*
X165476190Y-107154761D01*
X165380952Y-107202380D01*
X165095238Y-107202380D01*
X165000000Y-107154761D01*
X164952380Y-107107142D01*
X165857142Y-106202380D02*
X166190476Y-107202380D01*
X166523809Y-106202380D01*
X160809523Y-104166666D02*
X161285714Y-104166666D01*
X160714285Y-104452380D02*
X161047619Y-103452380D01*
X161380952Y-104452380D01*
X162238095Y-104452380D02*
X161666666Y-104452380D01*
X161952380Y-104452380D02*
X161952380Y-103452380D01*
X161857142Y-103595238D01*
X161761904Y-103690476D01*
X161666666Y-103738095D01*
X162857142Y-103452380D02*
X162952380Y-103452380D01*
X163047619Y-103500000D01*
X163095238Y-103547619D01*
X163142857Y-103642857D01*
X163190476Y-103833333D01*
X163190476Y-104071428D01*
X163142857Y-104261904D01*
X163095238Y-104357142D01*
X163047619Y-104404761D01*
X162952380Y-104452380D01*
X162857142Y-104452380D01*
X162761904Y-104404761D01*
X162714285Y-104357142D01*
X162666666Y-104261904D01*
X162619047Y-104071428D01*
X162619047Y-103833333D01*
X162666666Y-103642857D01*
X162714285Y-103547619D01*
X162761904Y-103500000D01*
X162857142Y-103452380D01*
X132315476Y-132404761D02*
X132458333Y-132452380D01*
X132696428Y-132452380D01*
X132791666Y-132404761D01*
X132839285Y-132357142D01*
X132886904Y-132261904D01*
X132886904Y-132166666D01*
X132839285Y-132071428D01*
X132791666Y-132023809D01*
X132696428Y-131976190D01*
X132505952Y-131928571D01*
X132410714Y-131880952D01*
X132363095Y-131833333D01*
X132315476Y-131738095D01*
X132315476Y-131642857D01*
X132363095Y-131547619D01*
X132410714Y-131500000D01*
X132505952Y-131452380D01*
X132744047Y-131452380D01*
X132886904Y-131500000D01*
X133172619Y-131785714D02*
X133553571Y-131785714D01*
X133315476Y-131452380D02*
X133315476Y-132309523D01*
X133363095Y-132404761D01*
X133458333Y-132452380D01*
X133553571Y-132452380D01*
X134315476Y-132452380D02*
X134315476Y-131928571D01*
X134267857Y-131833333D01*
X134172619Y-131785714D01*
X133982142Y-131785714D01*
X133886904Y-131833333D01*
X134315476Y-132404761D02*
X134220238Y-132452380D01*
X133982142Y-132452380D01*
X133886904Y-132404761D01*
X133839285Y-132309523D01*
X133839285Y-132214285D01*
X133886904Y-132119047D01*
X133982142Y-132071428D01*
X134220238Y-132071428D01*
X134315476Y-132023809D01*
X134648809Y-131785714D02*
X135029761Y-131785714D01*
X134791666Y-131452380D02*
X134791666Y-132309523D01*
X134839285Y-132404761D01*
X134934523Y-132452380D01*
X135029761Y-132452380D01*
X131634523Y-90452380D02*
X131967857Y-91452380D01*
X132301190Y-90452380D01*
X133205952Y-91357142D02*
X133158333Y-91404761D01*
X133015476Y-91452380D01*
X132920238Y-91452380D01*
X132777380Y-91404761D01*
X132682142Y-91309523D01*
X132634523Y-91214285D01*
X132586904Y-91023809D01*
X132586904Y-90880952D01*
X132634523Y-90690476D01*
X132682142Y-90595238D01*
X132777380Y-90500000D01*
X132920238Y-90452380D01*
X133015476Y-90452380D01*
X133158333Y-90500000D01*
X133205952Y-90547619D01*
X134205952Y-91357142D02*
X134158333Y-91404761D01*
X134015476Y-91452380D01*
X133920238Y-91452380D01*
X133777380Y-91404761D01*
X133682142Y-91309523D01*
X133634523Y-91214285D01*
X133586904Y-91023809D01*
X133586904Y-90880952D01*
X133634523Y-90690476D01*
X133682142Y-90595238D01*
X133777380Y-90500000D01*
X133920238Y-90452380D01*
X134015476Y-90452380D01*
X134158333Y-90500000D01*
X134205952Y-90547619D01*
X135872619Y-91452380D02*
X135396428Y-91452380D01*
X135396428Y-90452380D01*
X136348809Y-91452380D02*
X136253571Y-91404761D01*
X136205952Y-91357142D01*
X136158333Y-91261904D01*
X136158333Y-90976190D01*
X136205952Y-90880952D01*
X136253571Y-90833333D01*
X136348809Y-90785714D01*
X136491666Y-90785714D01*
X136586904Y-90833333D01*
X136634523Y-90880952D01*
X136682142Y-90976190D01*
X136682142Y-91261904D01*
X136634523Y-91357142D01*
X136586904Y-91404761D01*
X136491666Y-91452380D01*
X136348809Y-91452380D01*
X137015476Y-90785714D02*
X137205952Y-91452380D01*
X137396428Y-90976190D01*
X137586904Y-91452380D01*
X137777380Y-90785714D01*
X138920238Y-91452380D02*
X138920238Y-90452380D01*
X139396428Y-90785714D02*
X139396428Y-91452380D01*
X139396428Y-90880952D02*
X139444047Y-90833333D01*
X139539285Y-90785714D01*
X139682142Y-90785714D01*
X139777380Y-90833333D01*
X139825000Y-90928571D01*
X139825000Y-91452380D01*
X141348809Y-91833333D02*
X141301190Y-91785714D01*
X141205952Y-91642857D01*
X141158333Y-91547619D01*
X141110714Y-91404761D01*
X141063095Y-91166666D01*
X141063095Y-90976190D01*
X141110714Y-90738095D01*
X141158333Y-90595238D01*
X141205952Y-90500000D01*
X141301190Y-90357142D01*
X141348809Y-90309523D01*
X142063095Y-90928571D02*
X142205952Y-90976190D01*
X142253571Y-91023809D01*
X142301190Y-91119047D01*
X142301190Y-91261904D01*
X142253571Y-91357142D01*
X142205952Y-91404761D01*
X142110714Y-91452380D01*
X141729761Y-91452380D01*
X141729761Y-90452380D01*
X142063095Y-90452380D01*
X142158333Y-90500000D01*
X142205952Y-90547619D01*
X142253571Y-90642857D01*
X142253571Y-90738095D01*
X142205952Y-90833333D01*
X142158333Y-90880952D01*
X142063095Y-90928571D01*
X141729761Y-90928571D01*
X142920238Y-90452380D02*
X143015476Y-90452380D01*
X143110714Y-90500000D01*
X143158333Y-90547619D01*
X143205952Y-90642857D01*
X143253571Y-90833333D01*
X143253571Y-91071428D01*
X143205952Y-91261904D01*
X143158333Y-91357142D01*
X143110714Y-91404761D01*
X143015476Y-91452380D01*
X142920238Y-91452380D01*
X142825000Y-91404761D01*
X142777380Y-91357142D01*
X142729761Y-91261904D01*
X142682142Y-91071428D01*
X142682142Y-90833333D01*
X142729761Y-90642857D01*
X142777380Y-90547619D01*
X142825000Y-90500000D01*
X142920238Y-90452380D01*
X143586904Y-91833333D02*
X143634523Y-91785714D01*
X143729761Y-91642857D01*
X143777380Y-91547619D01*
X143825000Y-91404761D01*
X143872619Y-91166666D01*
X143872619Y-90976190D01*
X143825000Y-90738095D01*
X143777380Y-90595238D01*
X143729761Y-90500000D01*
X143634523Y-90357142D01*
X143586904Y-90309523D01*
X145333333Y-94452380D02*
X144761904Y-94452380D01*
X145047619Y-94452380D02*
X145047619Y-93452380D01*
X144952380Y-93595238D01*
X144857142Y-93690476D01*
X144761904Y-93738095D01*
X145952380Y-93452380D02*
X146047619Y-93452380D01*
X146142857Y-93500000D01*
X146190476Y-93547619D01*
X146238095Y-93642857D01*
X146285714Y-93833333D01*
X146285714Y-94071428D01*
X146238095Y-94261904D01*
X146190476Y-94357142D01*
X146142857Y-94404761D01*
X146047619Y-94452380D01*
X145952380Y-94452380D01*
X145857142Y-94404761D01*
X145809523Y-94357142D01*
X145761904Y-94261904D01*
X145714285Y-94071428D01*
X145714285Y-93833333D01*
X145761904Y-93642857D01*
X145809523Y-93547619D01*
X145857142Y-93500000D01*
X145952380Y-93452380D01*
X146904761Y-93452380D02*
X147000000Y-93452380D01*
X147095238Y-93500000D01*
X147142857Y-93547619D01*
X147190476Y-93642857D01*
X147238095Y-93833333D01*
X147238095Y-94071428D01*
X147190476Y-94261904D01*
X147142857Y-94357142D01*
X147095238Y-94404761D01*
X147000000Y-94452380D01*
X146904761Y-94452380D01*
X146809523Y-94404761D01*
X146761904Y-94357142D01*
X146714285Y-94261904D01*
X146666666Y-94071428D01*
X146666666Y-93833333D01*
X146714285Y-93642857D01*
X146761904Y-93547619D01*
X146809523Y-93500000D01*
X146904761Y-93452380D01*
X145833333Y-124452380D02*
X145500000Y-123976190D01*
X145261904Y-124452380D02*
X145261904Y-123452380D01*
X145642857Y-123452380D01*
X145738095Y-123500000D01*
X145785714Y-123547619D01*
X145833333Y-123642857D01*
X145833333Y-123785714D01*
X145785714Y-123880952D01*
X145738095Y-123928571D01*
X145642857Y-123976190D01*
X145261904Y-123976190D01*
X146166666Y-123452380D02*
X146833333Y-124452380D01*
X146833333Y-123452380D02*
X146166666Y-124452380D01*
X124463095Y-95825000D02*
X124367857Y-95777380D01*
X124225000Y-95777380D01*
X124082142Y-95825000D01*
X123986904Y-95920238D01*
X123939285Y-96015476D01*
X123891666Y-96205952D01*
X123891666Y-96348809D01*
X123939285Y-96539285D01*
X123986904Y-96634523D01*
X124082142Y-96729761D01*
X124225000Y-96777380D01*
X124320238Y-96777380D01*
X124463095Y-96729761D01*
X124510714Y-96682142D01*
X124510714Y-96348809D01*
X124320238Y-96348809D01*
X124939285Y-96777380D02*
X124939285Y-95777380D01*
X125510714Y-96777380D01*
X125510714Y-95777380D01*
X125986904Y-96777380D02*
X125986904Y-95777380D01*
X126225000Y-95777380D01*
X126367857Y-95825000D01*
X126463095Y-95920238D01*
X126510714Y-96015476D01*
X126558333Y-96205952D01*
X126558333Y-96348809D01*
X126510714Y-96539285D01*
X126463095Y-96634523D01*
X126367857Y-96729761D01*
X126225000Y-96777380D01*
X125986904Y-96777380D01*
X158500000Y-99547619D02*
X158547619Y-99500000D01*
X158642857Y-99452380D01*
X158880952Y-99452380D01*
X158976190Y-99500000D01*
X159023809Y-99547619D01*
X159071428Y-99642857D01*
X159071428Y-99738095D01*
X159023809Y-99880952D01*
X158452380Y-100452380D01*
X159071428Y-100452380D01*
X159500000Y-100357142D02*
X159547619Y-100404761D01*
X159500000Y-100452380D01*
X159452380Y-100404761D01*
X159500000Y-100357142D01*
X159500000Y-100452380D01*
X159928571Y-99547619D02*
X159976190Y-99500000D01*
X160071428Y-99452380D01*
X160309523Y-99452380D01*
X160404761Y-99500000D01*
X160452380Y-99547619D01*
X160500000Y-99642857D01*
X160500000Y-99738095D01*
X160452380Y-99880952D01*
X159880952Y-100452380D01*
X160500000Y-100452380D01*
X160928571Y-100452380D02*
X160928571Y-99452380D01*
X161500000Y-100452380D02*
X161071428Y-99880952D01*
X161500000Y-99452380D02*
X160928571Y-100023809D01*
X147459523Y-124404761D02*
X147602380Y-124452380D01*
X147840476Y-124452380D01*
X147935714Y-124404761D01*
X147983333Y-124357142D01*
X148030952Y-124261904D01*
X148030952Y-124166666D01*
X147983333Y-124071428D01*
X147935714Y-124023809D01*
X147840476Y-123976190D01*
X147650000Y-123928571D01*
X147554761Y-123880952D01*
X147507142Y-123833333D01*
X147459523Y-123738095D01*
X147459523Y-123642857D01*
X147507142Y-123547619D01*
X147554761Y-123500000D01*
X147650000Y-123452380D01*
X147888095Y-123452380D01*
X148030952Y-123500000D01*
X149030952Y-124357142D02*
X148983333Y-124404761D01*
X148840476Y-124452380D01*
X148745238Y-124452380D01*
X148602380Y-124404761D01*
X148507142Y-124309523D01*
X148459523Y-124214285D01*
X148411904Y-124023809D01*
X148411904Y-123880952D01*
X148459523Y-123690476D01*
X148507142Y-123595238D01*
X148602380Y-123500000D01*
X148745238Y-123452380D01*
X148840476Y-123452380D01*
X148983333Y-123500000D01*
X149030952Y-123547619D01*
X149935714Y-124452380D02*
X149459523Y-124452380D01*
X149459523Y-123452380D01*
X138138095Y-126452380D02*
X138709523Y-126452380D01*
X138423809Y-127452380D02*
X138423809Y-126452380D01*
X138947619Y-126452380D02*
X139614285Y-127452380D01*
X139614285Y-126452380D02*
X138947619Y-127452380D01*
X145453571Y-132452380D02*
X145453571Y-131452380D01*
X146025000Y-132452380D02*
X145596428Y-131880952D01*
X146025000Y-131452380D02*
X145453571Y-132023809D01*
X146834523Y-132404761D02*
X146739285Y-132452380D01*
X146548809Y-132452380D01*
X146453571Y-132404761D01*
X146405952Y-132309523D01*
X146405952Y-131928571D01*
X146453571Y-131833333D01*
X146548809Y-131785714D01*
X146739285Y-131785714D01*
X146834523Y-131833333D01*
X146882142Y-131928571D01*
X146882142Y-132023809D01*
X146405952Y-132119047D01*
X147215476Y-131785714D02*
X147453571Y-132452380D01*
X147691666Y-131785714D02*
X147453571Y-132452380D01*
X147358333Y-132690476D01*
X147310714Y-132738095D01*
X147215476Y-132785714D01*
%TO.C,BT1*%
X128114285Y-90928571D02*
X128257142Y-90976190D01*
X128304761Y-91023809D01*
X128352380Y-91119047D01*
X128352380Y-91261904D01*
X128304761Y-91357142D01*
X128257142Y-91404761D01*
X128161904Y-91452380D01*
X127780952Y-91452380D01*
X127780952Y-90452380D01*
X128114285Y-90452380D01*
X128209523Y-90500000D01*
X128257142Y-90547619D01*
X128304761Y-90642857D01*
X128304761Y-90738095D01*
X128257142Y-90833333D01*
X128209523Y-90880952D01*
X128114285Y-90928571D01*
X127780952Y-90928571D01*
X128638095Y-90452380D02*
X129209523Y-90452380D01*
X128923809Y-91452380D02*
X128923809Y-90452380D01*
X130066666Y-91452380D02*
X129495238Y-91452380D01*
X129780952Y-91452380D02*
X129780952Y-90452380D01*
X129685714Y-90595238D01*
X129590476Y-90690476D01*
X129495238Y-90738095D01*
%TO.C,D1*%
X133461904Y-98757380D02*
X133461904Y-97757380D01*
X133700000Y-97757380D01*
X133842857Y-97805000D01*
X133938095Y-97900238D01*
X133985714Y-97995476D01*
X134033333Y-98185952D01*
X134033333Y-98328809D01*
X133985714Y-98519285D01*
X133938095Y-98614523D01*
X133842857Y-98709761D01*
X133700000Y-98757380D01*
X133461904Y-98757380D01*
X134985714Y-98757380D02*
X134414285Y-98757380D01*
X134700000Y-98757380D02*
X134700000Y-97757380D01*
X134604761Y-97900238D01*
X134509523Y-97995476D01*
X134414285Y-98043095D01*
%TO.C,J1*%
X181441666Y-91372380D02*
X181441666Y-92086666D01*
X181394047Y-92229523D01*
X181298809Y-92324761D01*
X181155952Y-92372380D01*
X181060714Y-92372380D01*
X182441666Y-92372380D02*
X181870238Y-92372380D01*
X182155952Y-92372380D02*
X182155952Y-91372380D01*
X182060714Y-91515238D01*
X181965476Y-91610476D01*
X181870238Y-91658095D01*
%TO.C,H3*%
X184238095Y-135452380D02*
X184238095Y-134452380D01*
X184238095Y-134928571D02*
X184809523Y-134928571D01*
X184809523Y-135452380D02*
X184809523Y-134452380D01*
X185190476Y-134452380D02*
X185809523Y-134452380D01*
X185476190Y-134833333D01*
X185619047Y-134833333D01*
X185714285Y-134880952D01*
X185761904Y-134928571D01*
X185809523Y-135023809D01*
X185809523Y-135261904D01*
X185761904Y-135357142D01*
X185714285Y-135404761D01*
X185619047Y-135452380D01*
X185333333Y-135452380D01*
X185238095Y-135404761D01*
X185190476Y-135357142D01*
%TO.C,HC5*%
X131980380Y-130801904D02*
X130980380Y-130801904D01*
X131456571Y-130801904D02*
X131456571Y-130230476D01*
X131980380Y-130230476D02*
X130980380Y-130230476D01*
X131885142Y-129182857D02*
X131932761Y-129230476D01*
X131980380Y-129373333D01*
X131980380Y-129468571D01*
X131932761Y-129611428D01*
X131837523Y-129706666D01*
X131742285Y-129754285D01*
X131551809Y-129801904D01*
X131408952Y-129801904D01*
X131218476Y-129754285D01*
X131123238Y-129706666D01*
X131028000Y-129611428D01*
X130980380Y-129468571D01*
X130980380Y-129373333D01*
X131028000Y-129230476D01*
X131075619Y-129182857D01*
X130980380Y-128278095D02*
X130980380Y-128754285D01*
X131456571Y-128801904D01*
X131408952Y-128754285D01*
X131361333Y-128659047D01*
X131361333Y-128420952D01*
X131408952Y-128325714D01*
X131456571Y-128278095D01*
X131551809Y-128230476D01*
X131789904Y-128230476D01*
X131885142Y-128278095D01*
X131932761Y-128325714D01*
X131980380Y-128420952D01*
X131980380Y-128659047D01*
X131932761Y-128754285D01*
X131885142Y-128801904D01*
%TO.C,H2*%
X123238095Y-135452380D02*
X123238095Y-134452380D01*
X123238095Y-134928571D02*
X123809523Y-134928571D01*
X123809523Y-135452380D02*
X123809523Y-134452380D01*
X124238095Y-134547619D02*
X124285714Y-134500000D01*
X124380952Y-134452380D01*
X124619047Y-134452380D01*
X124714285Y-134500000D01*
X124761904Y-134547619D01*
X124809523Y-134642857D01*
X124809523Y-134738095D01*
X124761904Y-134880952D01*
X124190476Y-135452380D01*
X124809523Y-135452380D01*
%TO.C,R3*%
X146433333Y-102272380D02*
X146100000Y-101796190D01*
X145861904Y-102272380D02*
X145861904Y-101272380D01*
X146242857Y-101272380D01*
X146338095Y-101320000D01*
X146385714Y-101367619D01*
X146433333Y-101462857D01*
X146433333Y-101605714D01*
X146385714Y-101700952D01*
X146338095Y-101748571D01*
X146242857Y-101796190D01*
X145861904Y-101796190D01*
X146766666Y-101272380D02*
X147385714Y-101272380D01*
X147052380Y-101653333D01*
X147195238Y-101653333D01*
X147290476Y-101700952D01*
X147338095Y-101748571D01*
X147385714Y-101843809D01*
X147385714Y-102081904D01*
X147338095Y-102177142D01*
X147290476Y-102224761D01*
X147195238Y-102272380D01*
X146909523Y-102272380D01*
X146814285Y-102224761D01*
X146766666Y-102177142D01*
%TO.C,H4*%
X184238095Y-86452380D02*
X184238095Y-85452380D01*
X184238095Y-85928571D02*
X184809523Y-85928571D01*
X184809523Y-86452380D02*
X184809523Y-85452380D01*
X185714285Y-85785714D02*
X185714285Y-86452380D01*
X185476190Y-85404761D02*
X185238095Y-86119047D01*
X185857142Y-86119047D01*
%TO.C,U1*%
X146558095Y-111452380D02*
X146558095Y-112261904D01*
X146605714Y-112357142D01*
X146653333Y-112404761D01*
X146748571Y-112452380D01*
X146939047Y-112452380D01*
X147034285Y-112404761D01*
X147081904Y-112357142D01*
X147129523Y-112261904D01*
X147129523Y-111452380D01*
X148129523Y-112452380D02*
X147558095Y-112452380D01*
X147843809Y-112452380D02*
X147843809Y-111452380D01*
X147748571Y-111595238D01*
X147653333Y-111690476D01*
X147558095Y-111738095D01*
X147293333Y-115759666D02*
X147293333Y-115059666D01*
X147526666Y-115559666D01*
X147760000Y-115059666D01*
X147760000Y-115759666D01*
X148093333Y-115393000D02*
X148326666Y-115393000D01*
X148426666Y-115759666D02*
X148093333Y-115759666D01*
X148093333Y-115059666D01*
X148426666Y-115059666D01*
X149093333Y-115093000D02*
X149026666Y-115059666D01*
X148926666Y-115059666D01*
X148826666Y-115093000D01*
X148760000Y-115159666D01*
X148726666Y-115226333D01*
X148693333Y-115359666D01*
X148693333Y-115459666D01*
X148726666Y-115593000D01*
X148760000Y-115659666D01*
X148826666Y-115726333D01*
X148926666Y-115759666D01*
X148993333Y-115759666D01*
X149093333Y-115726333D01*
X149126666Y-115693000D01*
X149126666Y-115459666D01*
X148993333Y-115459666D01*
X149393333Y-115559666D02*
X149726666Y-115559666D01*
X149326666Y-115759666D02*
X149560000Y-115059666D01*
X149793333Y-115759666D01*
X149960000Y-115059666D02*
X150393333Y-115059666D01*
X150160000Y-115326333D01*
X150260000Y-115326333D01*
X150326666Y-115359666D01*
X150360000Y-115393000D01*
X150393333Y-115459666D01*
X150393333Y-115626333D01*
X150360000Y-115693000D01*
X150326666Y-115726333D01*
X150260000Y-115759666D01*
X150060000Y-115759666D01*
X149993333Y-115726333D01*
X149960000Y-115693000D01*
X150660000Y-115126333D02*
X150693333Y-115093000D01*
X150760000Y-115059666D01*
X150926666Y-115059666D01*
X150993333Y-115093000D01*
X151026666Y-115126333D01*
X151060000Y-115193000D01*
X151060000Y-115259666D01*
X151026666Y-115359666D01*
X150626666Y-115759666D01*
X151060000Y-115759666D01*
X151360000Y-115059666D02*
X151360000Y-115626333D01*
X151393333Y-115693000D01*
X151426666Y-115726333D01*
X151493333Y-115759666D01*
X151626666Y-115759666D01*
X151693333Y-115726333D01*
X151726666Y-115693000D01*
X151760000Y-115626333D01*
X151760000Y-115059666D01*
X152393333Y-115293000D02*
X152393333Y-115759666D01*
X152226666Y-115026333D02*
X152060000Y-115526333D01*
X152493333Y-115526333D01*
%TO.C,H1*%
X123238095Y-86452380D02*
X123238095Y-85452380D01*
X123238095Y-85928571D02*
X123809523Y-85928571D01*
X123809523Y-86452380D02*
X123809523Y-85452380D01*
X124809523Y-86452380D02*
X124238095Y-86452380D01*
X124523809Y-86452380D02*
X124523809Y-85452380D01*
X124428571Y-85595238D01*
X124333333Y-85690476D01*
X124238095Y-85738095D01*
%TO.C,IC2_3*%
X179950666Y-118017380D02*
X179950666Y-117017380D01*
X180998285Y-117922142D02*
X180950666Y-117969761D01*
X180807809Y-118017380D01*
X180712571Y-118017380D01*
X180569714Y-117969761D01*
X180474476Y-117874523D01*
X180426857Y-117779285D01*
X180379238Y-117588809D01*
X180379238Y-117445952D01*
X180426857Y-117255476D01*
X180474476Y-117160238D01*
X180569714Y-117065000D01*
X180712571Y-117017380D01*
X180807809Y-117017380D01*
X180950666Y-117065000D01*
X180998285Y-117112619D01*
X181379238Y-117112619D02*
X181426857Y-117065000D01*
X181522095Y-117017380D01*
X181760190Y-117017380D01*
X181855428Y-117065000D01*
X181903047Y-117112619D01*
X181950666Y-117207857D01*
X181950666Y-117303095D01*
X181903047Y-117445952D01*
X181331619Y-118017380D01*
X181950666Y-118017380D01*
X182141142Y-118112619D02*
X182903047Y-118112619D01*
X183045904Y-117017380D02*
X183664952Y-117017380D01*
X183331619Y-117398333D01*
X183474476Y-117398333D01*
X183569714Y-117445952D01*
X183617333Y-117493571D01*
X183664952Y-117588809D01*
X183664952Y-117826904D01*
X183617333Y-117922142D01*
X183569714Y-117969761D01*
X183474476Y-118017380D01*
X183188761Y-118017380D01*
X183093523Y-117969761D01*
X183045904Y-117922142D01*
%TO.C,R1*%
X145833333Y-96472380D02*
X145500000Y-95996190D01*
X145261904Y-96472380D02*
X145261904Y-95472380D01*
X145642857Y-95472380D01*
X145738095Y-95520000D01*
X145785714Y-95567619D01*
X145833333Y-95662857D01*
X145833333Y-95805714D01*
X145785714Y-95900952D01*
X145738095Y-95948571D01*
X145642857Y-95996190D01*
X145261904Y-95996190D01*
X146785714Y-96472380D02*
X146214285Y-96472380D01*
X146500000Y-96472380D02*
X146500000Y-95472380D01*
X146404761Y-95615238D01*
X146309523Y-95710476D01*
X146214285Y-95758095D01*
%TO.C,J2*%
X167541666Y-91397380D02*
X167541666Y-92111666D01*
X167494047Y-92254523D01*
X167398809Y-92349761D01*
X167255952Y-92397380D01*
X167160714Y-92397380D01*
X167970238Y-91492619D02*
X168017857Y-91445000D01*
X168113095Y-91397380D01*
X168351190Y-91397380D01*
X168446428Y-91445000D01*
X168494047Y-91492619D01*
X168541666Y-91587857D01*
X168541666Y-91683095D01*
X168494047Y-91825952D01*
X167922619Y-92397380D01*
X168541666Y-92397380D01*
%TO.C,R2*%
X159833333Y-96472380D02*
X159500000Y-95996190D01*
X159261904Y-96472380D02*
X159261904Y-95472380D01*
X159642857Y-95472380D01*
X159738095Y-95520000D01*
X159785714Y-95567619D01*
X159833333Y-95662857D01*
X159833333Y-95805714D01*
X159785714Y-95900952D01*
X159738095Y-95948571D01*
X159642857Y-95996190D01*
X159261904Y-95996190D01*
X160214285Y-95567619D02*
X160261904Y-95520000D01*
X160357142Y-95472380D01*
X160595238Y-95472380D01*
X160690476Y-95520000D01*
X160738095Y-95567619D01*
X160785714Y-95662857D01*
X160785714Y-95758095D01*
X160738095Y-95900952D01*
X160166666Y-96472380D01*
X160785714Y-96472380D01*
%TO.C,IC2_2*%
X180041666Y-131207380D02*
X180041666Y-130207380D01*
X181089285Y-131112142D02*
X181041666Y-131159761D01*
X180898809Y-131207380D01*
X180803571Y-131207380D01*
X180660714Y-131159761D01*
X180565476Y-131064523D01*
X180517857Y-130969285D01*
X180470238Y-130778809D01*
X180470238Y-130635952D01*
X180517857Y-130445476D01*
X180565476Y-130350238D01*
X180660714Y-130255000D01*
X180803571Y-130207380D01*
X180898809Y-130207380D01*
X181041666Y-130255000D01*
X181089285Y-130302619D01*
X181470238Y-130302619D02*
X181517857Y-130255000D01*
X181613095Y-130207380D01*
X181851190Y-130207380D01*
X181946428Y-130255000D01*
X181994047Y-130302619D01*
X182041666Y-130397857D01*
X182041666Y-130493095D01*
X181994047Y-130635952D01*
X181422619Y-131207380D01*
X182041666Y-131207380D01*
X182232142Y-131302619D02*
X182994047Y-131302619D01*
X183184523Y-130302619D02*
X183232142Y-130255000D01*
X183327380Y-130207380D01*
X183565476Y-130207380D01*
X183660714Y-130255000D01*
X183708333Y-130302619D01*
X183755952Y-130397857D01*
X183755952Y-130493095D01*
X183708333Y-130635952D01*
X183136904Y-131207380D01*
X183755952Y-131207380D01*
%TO.C,J3*%
X171966666Y-91372380D02*
X171966666Y-92086666D01*
X171919047Y-92229523D01*
X171823809Y-92324761D01*
X171680952Y-92372380D01*
X171585714Y-92372380D01*
X172347619Y-91372380D02*
X172966666Y-91372380D01*
X172633333Y-91753333D01*
X172776190Y-91753333D01*
X172871428Y-91800952D01*
X172919047Y-91848571D01*
X172966666Y-91943809D01*
X172966666Y-92181904D01*
X172919047Y-92277142D01*
X172871428Y-92324761D01*
X172776190Y-92372380D01*
X172490476Y-92372380D01*
X172395238Y-92324761D01*
X172347619Y-92277142D01*
%TO.C,R4*%
X159833333Y-102272380D02*
X159500000Y-101796190D01*
X159261904Y-102272380D02*
X159261904Y-101272380D01*
X159642857Y-101272380D01*
X159738095Y-101320000D01*
X159785714Y-101367619D01*
X159833333Y-101462857D01*
X159833333Y-101605714D01*
X159785714Y-101700952D01*
X159738095Y-101748571D01*
X159642857Y-101796190D01*
X159261904Y-101796190D01*
X160690476Y-101605714D02*
X160690476Y-102272380D01*
X160452380Y-101224761D02*
X160214285Y-101939047D01*
X160833333Y-101939047D01*
%TO.C,IC2_4*%
X166416666Y-117612380D02*
X166416666Y-116612380D01*
X167464285Y-117517142D02*
X167416666Y-117564761D01*
X167273809Y-117612380D01*
X167178571Y-117612380D01*
X167035714Y-117564761D01*
X166940476Y-117469523D01*
X166892857Y-117374285D01*
X166845238Y-117183809D01*
X166845238Y-117040952D01*
X166892857Y-116850476D01*
X166940476Y-116755238D01*
X167035714Y-116660000D01*
X167178571Y-116612380D01*
X167273809Y-116612380D01*
X167416666Y-116660000D01*
X167464285Y-116707619D01*
X167845238Y-116707619D02*
X167892857Y-116660000D01*
X167988095Y-116612380D01*
X168226190Y-116612380D01*
X168321428Y-116660000D01*
X168369047Y-116707619D01*
X168416666Y-116802857D01*
X168416666Y-116898095D01*
X168369047Y-117040952D01*
X167797619Y-117612380D01*
X168416666Y-117612380D01*
X168607142Y-117707619D02*
X169369047Y-117707619D01*
X170035714Y-116945714D02*
X170035714Y-117612380D01*
X169797619Y-116564761D02*
X169559523Y-117279047D01*
X170178571Y-117279047D01*
%TO.C,IC2_1*%
X166923666Y-130866380D02*
X166923666Y-129866380D01*
X167971285Y-130771142D02*
X167923666Y-130818761D01*
X167780809Y-130866380D01*
X167685571Y-130866380D01*
X167542714Y-130818761D01*
X167447476Y-130723523D01*
X167399857Y-130628285D01*
X167352238Y-130437809D01*
X167352238Y-130294952D01*
X167399857Y-130104476D01*
X167447476Y-130009238D01*
X167542714Y-129914000D01*
X167685571Y-129866380D01*
X167780809Y-129866380D01*
X167923666Y-129914000D01*
X167971285Y-129961619D01*
X168352238Y-129961619D02*
X168399857Y-129914000D01*
X168495095Y-129866380D01*
X168733190Y-129866380D01*
X168828428Y-129914000D01*
X168876047Y-129961619D01*
X168923666Y-130056857D01*
X168923666Y-130152095D01*
X168876047Y-130294952D01*
X168304619Y-130866380D01*
X168923666Y-130866380D01*
X169114142Y-130961619D02*
X169876047Y-130961619D01*
X170637952Y-130866380D02*
X170066523Y-130866380D01*
X170352238Y-130866380D02*
X170352238Y-129866380D01*
X170257000Y-130009238D01*
X170161761Y-130104476D01*
X170066523Y-130152095D01*
%TO.C,J4*%
X176816666Y-91372380D02*
X176816666Y-92086666D01*
X176769047Y-92229523D01*
X176673809Y-92324761D01*
X176530952Y-92372380D01*
X176435714Y-92372380D01*
X177721428Y-91705714D02*
X177721428Y-92372380D01*
X177483333Y-91324761D02*
X177245238Y-92039047D01*
X177864285Y-92039047D01*
D11*
%TO.C,BT1*%
X127570000Y-93500000D02*
X127570000Y-92170000D01*
X130230000Y-94770000D02*
X130230000Y-97370000D01*
X127570000Y-94770000D02*
X130230000Y-94770000D01*
X127570000Y-92170000D02*
X128900000Y-92170000D01*
X127570000Y-97370000D02*
X130230000Y-97370000D01*
X127570000Y-94770000D02*
X127570000Y-97370000D01*
%TO.C,D1*%
X135530000Y-94705000D02*
X132870000Y-94705000D01*
X132870000Y-94705000D02*
X132870000Y-92105000D01*
X135530000Y-95975000D02*
X135530000Y-97305000D01*
X135530000Y-97305000D02*
X134200000Y-97305000D01*
X135530000Y-94705000D02*
X135530000Y-92105000D01*
X135530000Y-92105000D02*
X132870000Y-92105000D01*
%TO.C,J1*%
X183105000Y-95520000D02*
X183105000Y-98120000D01*
X180445000Y-95520000D02*
X183105000Y-95520000D01*
X180445000Y-92920000D02*
X181775000Y-92920000D01*
X180445000Y-94250000D02*
X180445000Y-92920000D01*
X180445000Y-98120000D02*
X183105000Y-98120000D01*
X180445000Y-95520000D02*
X180445000Y-98120000D01*
%TO.C,HC5*%
X135128000Y-128210000D02*
X147888000Y-128210000D01*
X132528000Y-130870000D02*
X132528000Y-129540000D01*
X147888000Y-130870000D02*
X147888000Y-128210000D01*
X135128000Y-130870000D02*
X147888000Y-130870000D01*
X135128000Y-130870000D02*
X135128000Y-128210000D01*
X133858000Y-130870000D02*
X132528000Y-130870000D01*
%TO.C,R3*%
X148520000Y-98980000D02*
X144680000Y-98980000D01*
X148520000Y-100820000D02*
X144680000Y-100820000D01*
D10*
%TO.C,U1*%
X160020000Y-111760000D02*
X156210000Y-111760000D01*
X156210000Y-111760000D02*
X156210000Y-114300000D01*
X146050000Y-118110000D02*
X153670000Y-118110000D01*
X156210000Y-116840000D02*
X156210000Y-119380000D01*
X162560000Y-123190000D02*
X132080000Y-123190000D01*
X156210000Y-115570000D02*
X160020000Y-115570000D01*
X130810000Y-118110000D02*
X130810000Y-110490000D01*
X132080000Y-105410000D02*
X162560000Y-105410000D01*
X162560000Y-105410000D02*
X162560000Y-123190000D01*
X156210000Y-114300000D02*
X156210000Y-115570000D01*
X132080000Y-123190000D02*
X132080000Y-105410000D01*
X146050000Y-110490000D02*
X146050000Y-118110000D01*
X160020000Y-119380000D02*
X160020000Y-116840000D01*
X139700000Y-110490000D02*
X139700000Y-118110000D01*
X130810000Y-110490000D02*
X139700000Y-110490000D01*
X156210000Y-119380000D02*
X160020000Y-119380000D01*
X160020000Y-115570000D02*
X160020000Y-111760000D01*
X139700000Y-118110000D02*
X130810000Y-118110000D01*
X153670000Y-110490000D02*
X146050000Y-110490000D01*
X153670000Y-118110000D02*
X153670000Y-110490000D01*
X160020000Y-116840000D02*
X156210000Y-116840000D01*
D12*
X147955000Y-113538000D02*
X151765000Y-113538000D01*
X151765000Y-113538000D02*
X151638000Y-113792000D01*
X151638000Y-113792000D02*
X147955000Y-113792000D01*
X147955000Y-113792000D02*
X147955000Y-113538000D01*
G36*
X151638000Y-113792000D02*
G01*
X147955000Y-113792000D01*
X147955000Y-113538000D01*
X151765000Y-113538000D01*
X151638000Y-113792000D01*
G37*
X151638000Y-113792000D02*
X147955000Y-113792000D01*
X147955000Y-113538000D01*
X151765000Y-113538000D01*
X151638000Y-113792000D01*
X151130000Y-112395000D02*
X151130000Y-113411000D01*
X151130000Y-113411000D02*
X151765000Y-113411000D01*
X151765000Y-113411000D02*
X151892000Y-113157000D01*
X151892000Y-113157000D02*
X151384000Y-113157000D01*
X151384000Y-113157000D02*
X151384000Y-112395000D01*
X151384000Y-112395000D02*
X151130000Y-112395000D01*
G36*
X151384000Y-113157000D02*
G01*
X151892000Y-113157000D01*
X151765000Y-113411000D01*
X151130000Y-113411000D01*
X151130000Y-112395000D01*
X151384000Y-112395000D01*
X151384000Y-113157000D01*
G37*
X151384000Y-113157000D02*
X151892000Y-113157000D01*
X151765000Y-113411000D01*
X151130000Y-113411000D01*
X151130000Y-112395000D01*
X151384000Y-112395000D01*
X151384000Y-113157000D01*
X148717000Y-113411000D02*
X148717000Y-112395000D01*
X148717000Y-112395000D02*
X148336000Y-112395000D01*
X148336000Y-112395000D02*
X147955000Y-113411000D01*
X147955000Y-113411000D02*
X148209000Y-113411000D01*
X148209000Y-113411000D02*
X148463000Y-112649000D01*
X148463000Y-112649000D02*
X148463000Y-113411000D01*
X148463000Y-113411000D02*
X148717000Y-113411000D01*
G36*
X148717000Y-113411000D02*
G01*
X148463000Y-113411000D01*
X148463000Y-112649000D01*
X148209000Y-113411000D01*
X147955000Y-113411000D01*
X148336000Y-112395000D01*
X148717000Y-112395000D01*
X148717000Y-113411000D01*
G37*
X148717000Y-113411000D02*
X148463000Y-113411000D01*
X148463000Y-112649000D01*
X148209000Y-113411000D01*
X147955000Y-113411000D01*
X148336000Y-112395000D01*
X148717000Y-112395000D01*
X148717000Y-113411000D01*
X150368000Y-112395000D02*
X151003000Y-112395000D01*
X151003000Y-112395000D02*
X151003000Y-112649000D01*
X151003000Y-112649000D02*
X150622000Y-112649000D01*
X150622000Y-112649000D02*
X150622000Y-112776000D01*
X150622000Y-112776000D02*
X151003000Y-112776000D01*
X151003000Y-112776000D02*
X151003000Y-113030000D01*
X151003000Y-113030000D02*
X150622000Y-113030000D01*
X150622000Y-113030000D02*
X150622000Y-113157000D01*
X150622000Y-113157000D02*
X151003000Y-113157000D01*
X151003000Y-113157000D02*
X151003000Y-113411000D01*
X151003000Y-113411000D02*
X150368000Y-113411000D01*
X150368000Y-113411000D02*
X150368000Y-112395000D01*
G36*
X151003000Y-112649000D02*
G01*
X150622000Y-112649000D01*
X150622000Y-112776000D01*
X151003000Y-112776000D01*
X151003000Y-113030000D01*
X150622000Y-113030000D01*
X150622000Y-113157000D01*
X151003000Y-113157000D01*
X151003000Y-113411000D01*
X150368000Y-113411000D01*
X150368000Y-112395000D01*
X151003000Y-112395000D01*
X151003000Y-112649000D01*
G37*
X151003000Y-112649000D02*
X150622000Y-112649000D01*
X150622000Y-112776000D01*
X151003000Y-112776000D01*
X151003000Y-113030000D01*
X150622000Y-113030000D01*
X150622000Y-113157000D01*
X151003000Y-113157000D01*
X151003000Y-113411000D01*
X150368000Y-113411000D01*
X150368000Y-112395000D01*
X151003000Y-112395000D01*
X151003000Y-112649000D01*
X150241000Y-113411000D02*
X150241000Y-112395000D01*
X150241000Y-112395000D02*
X149225000Y-112395000D01*
X149225000Y-112395000D02*
X149225000Y-113411000D01*
X149225000Y-113411000D02*
X149479000Y-113411000D01*
X149479000Y-113411000D02*
X149479000Y-112649000D01*
X149479000Y-112649000D02*
X149606000Y-112649000D01*
X149606000Y-112649000D02*
X149606000Y-113411000D01*
X149606000Y-113411000D02*
X149860000Y-113411000D01*
X149860000Y-113411000D02*
X149860000Y-112649000D01*
X149860000Y-112649000D02*
X149987000Y-112649000D01*
X149987000Y-112649000D02*
X149987000Y-113411000D01*
X149987000Y-113411000D02*
X150241000Y-113411000D01*
G36*
X150241000Y-113411000D02*
G01*
X149987000Y-113411000D01*
X149987000Y-112649000D01*
X149860000Y-112649000D01*
X149860000Y-113411000D01*
X149606000Y-113411000D01*
X149606000Y-112649000D01*
X149479000Y-112649000D01*
X149479000Y-113411000D01*
X149225000Y-113411000D01*
X149225000Y-112395000D01*
X150241000Y-112395000D01*
X150241000Y-113411000D01*
G37*
X150241000Y-113411000D02*
X149987000Y-113411000D01*
X149987000Y-112649000D01*
X149860000Y-112649000D01*
X149860000Y-113411000D01*
X149606000Y-113411000D01*
X149606000Y-112649000D01*
X149479000Y-112649000D01*
X149479000Y-113411000D01*
X149225000Y-113411000D01*
X149225000Y-112395000D01*
X150241000Y-112395000D01*
X150241000Y-113411000D01*
X151384000Y-112268000D02*
X149098000Y-112268000D01*
X149098000Y-112268000D02*
X149098000Y-113411000D01*
X149098000Y-113411000D02*
X148844000Y-113411000D01*
X148844000Y-113411000D02*
X148844000Y-112268000D01*
X148844000Y-112268000D02*
X148336000Y-112268000D01*
X148336000Y-112268000D02*
X148463000Y-112014000D01*
X148463000Y-112014000D02*
X151384000Y-112014000D01*
X151384000Y-112014000D02*
X151384000Y-112268000D01*
G36*
X151384000Y-112268000D02*
G01*
X149098000Y-112268000D01*
X149098000Y-113411000D01*
X148844000Y-113411000D01*
X148844000Y-112268000D01*
X148336000Y-112268000D01*
X148463000Y-112014000D01*
X151384000Y-112014000D01*
X151384000Y-112268000D01*
G37*
X151384000Y-112268000D02*
X149098000Y-112268000D01*
X149098000Y-113411000D01*
X148844000Y-113411000D01*
X148844000Y-112268000D01*
X148336000Y-112268000D01*
X148463000Y-112014000D01*
X151384000Y-112014000D01*
X151384000Y-112268000D01*
D11*
%TO.C,IC2_3*%
X183064000Y-108135000D02*
X183064000Y-115815000D01*
X180404000Y-106865000D02*
X180404000Y-105535000D01*
X180404000Y-115815000D02*
X183064000Y-115815000D01*
X180404000Y-108135000D02*
X180404000Y-115815000D01*
X180404000Y-105535000D02*
X181734000Y-105535000D01*
X180404000Y-108135000D02*
X183064000Y-108135000D01*
%TO.C,R1*%
X148220000Y-93180000D02*
X144380000Y-93180000D01*
X148220000Y-95020000D02*
X144380000Y-95020000D01*
%TO.C,J2*%
X169205000Y-95545000D02*
X169205000Y-98145000D01*
X166545000Y-95545000D02*
X166545000Y-98145000D01*
X166545000Y-92945000D02*
X167875000Y-92945000D01*
X166545000Y-94275000D02*
X166545000Y-92945000D01*
X166545000Y-95545000D02*
X169205000Y-95545000D01*
X166545000Y-98145000D02*
X169205000Y-98145000D01*
%TO.C,R2*%
X161720000Y-95020000D02*
X157880000Y-95020000D01*
X161720000Y-93180000D02*
X157880000Y-93180000D01*
%TO.C,IC2_2*%
X183205000Y-127155000D02*
X183205000Y-119475000D01*
X183205000Y-128425000D02*
X183205000Y-129755000D01*
X183205000Y-127155000D02*
X180545000Y-127155000D01*
X180545000Y-127155000D02*
X180545000Y-119475000D01*
X183205000Y-119475000D02*
X180545000Y-119475000D01*
X183205000Y-129755000D02*
X181875000Y-129755000D01*
%TO.C,J3*%
X173630000Y-95520000D02*
X173630000Y-98120000D01*
X170970000Y-98120000D02*
X173630000Y-98120000D01*
X170970000Y-94250000D02*
X170970000Y-92920000D01*
X170970000Y-92920000D02*
X172300000Y-92920000D01*
X170970000Y-95520000D02*
X170970000Y-98120000D01*
X170970000Y-95520000D02*
X173630000Y-95520000D01*
%TO.C,R4*%
X161620000Y-98980000D02*
X157780000Y-98980000D01*
X161620000Y-100820000D02*
X157780000Y-100820000D01*
%TO.C,IC2_4*%
X167370000Y-115710000D02*
X170030000Y-115710000D01*
X167370000Y-108030000D02*
X167370000Y-115710000D01*
X167370000Y-105430000D02*
X168700000Y-105430000D01*
X167370000Y-106760000D02*
X167370000Y-105430000D01*
X170030000Y-108030000D02*
X170030000Y-115710000D01*
X167370000Y-108030000D02*
X170030000Y-108030000D01*
%TO.C,IC2_1*%
X167427000Y-126814000D02*
X167427000Y-119134000D01*
X170087000Y-126814000D02*
X167427000Y-126814000D01*
X170087000Y-119134000D02*
X167427000Y-119134000D01*
X170087000Y-128084000D02*
X170087000Y-129414000D01*
X170087000Y-129414000D02*
X168757000Y-129414000D01*
X170087000Y-126814000D02*
X170087000Y-119134000D01*
%TO.C,J4*%
X175820000Y-92920000D02*
X177150000Y-92920000D01*
X175820000Y-95520000D02*
X175820000Y-98120000D01*
X175820000Y-95520000D02*
X178480000Y-95520000D01*
X175820000Y-94250000D02*
X175820000Y-92920000D01*
X175820000Y-98120000D02*
X178480000Y-98120000D01*
X178480000Y-95520000D02*
X178480000Y-98120000D01*
%TD*%
M02*
