%TF.GenerationSoftware,KiCad,Pcbnew,(6.0.0-0)*%
%TF.CreationDate,2022-01-07T12:45:35+01:00*%
%TF.ProjectId,TeensyTest,5465656e-7379-4546-9573-742e6b696361,rev?*%
%TF.SameCoordinates,Original*%
%TF.FileFunction,Copper,L1,Top*%
%TF.FilePolarity,Positive*%
%FSLAX46Y46*%
G04 Gerber Fmt 4.6, Leading zero omitted, Abs format (unit mm)*
G04 Created by KiCad (PCBNEW (6.0.0-0)) date 2022-01-07 12:45:35*
%MOMM*%
%LPD*%
G01*
G04 APERTURE LIST*
%TA.AperFunction,ComponentPad*%
%ADD10R,1.700000X1.700000*%
%TD*%
%TA.AperFunction,ComponentPad*%
%ADD11O,1.700000X1.700000*%
%TD*%
%TA.AperFunction,ComponentPad*%
%ADD12C,1.400000*%
%TD*%
%TA.AperFunction,ComponentPad*%
%ADD13O,1.400000X1.400000*%
%TD*%
%TA.AperFunction,ComponentPad*%
%ADD14R,1.600000X1.600000*%
%TD*%
%TA.AperFunction,ComponentPad*%
%ADD15C,1.600000*%
%TD*%
%TA.AperFunction,ComponentPad*%
%ADD16C,1.700000*%
%TD*%
%TA.AperFunction,ComponentPad*%
%ADD17O,1.600000X1.700000*%
%TD*%
%TA.AperFunction,Conductor*%
%ADD18C,0.250000*%
%TD*%
G04 APERTURE END LIST*
D10*
%TO.P,BT1,1,+*%
%TO.N,/5.5V*%
X128900000Y-93500000D03*
D11*
%TO.P,BT1,2,-*%
%TO.N,/GND*%
X128900000Y-96040000D03*
%TD*%
D10*
%TO.P,D1,1,K*%
%TO.N,/GND*%
X134200000Y-95975000D03*
D11*
%TO.P,D1,2,A*%
%TO.N,/VLTG_LOW_OUT*%
X134200000Y-93435000D03*
%TD*%
D10*
%TO.P,J1,1,Pin_1*%
%TO.N,/GND*%
X181775000Y-94250000D03*
D11*
%TO.P,J1,2,Pin_2*%
%TO.N,/DISP_SEL*%
X181775000Y-96790000D03*
%TD*%
D10*
%TO.P,HC5,1,Pin_1*%
%TO.N,unconnected-(HC5-Pad1)*%
X133858000Y-129540000D03*
D11*
%TO.P,HC5,2,Pin_2*%
%TO.N,/RX(TX)*%
X136398000Y-129540000D03*
%TO.P,HC5,3,Pin_3*%
%TO.N,/TX(RX)*%
X138938000Y-129540000D03*
%TO.P,HC5,4,Pin_4*%
%TO.N,/GND*%
X141478000Y-129540000D03*
%TO.P,HC5,5,Pin_5*%
%TO.N,/5.5V*%
X144018000Y-129540000D03*
%TO.P,HC5,6,Pin_6*%
%TO.N,unconnected-(HC5-Pad6)*%
X146558000Y-129540000D03*
%TD*%
D12*
%TO.P,R3,1*%
%TO.N,/VCC_LOW*%
X149140000Y-99900000D03*
D13*
%TO.P,R3,2*%
%TO.N,/5.5V*%
X144060000Y-99900000D03*
%TD*%
D14*
%TO.P,U1,1*%
%TO.N,N/C*%
X133350000Y-121920000D03*
D15*
%TO.P,U1,2*%
X135890000Y-121920000D03*
%TO.P,U1,3*%
X138430000Y-121920000D03*
%TO.P,U1,4*%
X140970000Y-121920000D03*
%TO.P,U1,5*%
X143510000Y-121920000D03*
%TO.P,U1,6*%
X146050000Y-121920000D03*
D16*
%TO.P,U1,7*%
X148590000Y-121920000D03*
D17*
%TO.P,U1,8*%
X151130000Y-121920000D03*
D15*
%TO.P,U1,9*%
X153670000Y-121920000D03*
%TO.P,U1,10*%
X156210000Y-121920000D03*
%TO.P,U1,11*%
X158750000Y-121920000D03*
%TO.P,U1,12*%
X161290000Y-121920000D03*
%TO.P,U1,13*%
X161290000Y-119380000D03*
%TO.P,U1,14*%
X161290000Y-116840000D03*
%TO.P,U1,15*%
X161290000Y-114300000D03*
%TO.P,U1,16*%
X161290000Y-111760000D03*
%TO.P,U1,17*%
X161290000Y-109220000D03*
%TO.P,U1,18*%
X161290000Y-106680000D03*
%TO.P,U1,19*%
X158750000Y-106680000D03*
%TO.P,U1,20*%
X156210000Y-106680000D03*
%TO.P,U1,21*%
X153670000Y-106680000D03*
%TO.P,U1,22*%
X151130000Y-106680000D03*
%TO.P,U1,23*%
X148590000Y-106680000D03*
%TO.P,U1,24*%
X146050000Y-106680000D03*
%TO.P,U1,25*%
X143510000Y-106680000D03*
%TO.P,U1,26*%
X140970000Y-106680000D03*
%TO.P,U1,27*%
X138430000Y-106680000D03*
%TO.P,U1,28*%
X135890000Y-106680000D03*
%TO.P,U1,29*%
X133350000Y-106680000D03*
%TO.P,U1,30*%
X143510000Y-119380000D03*
%TO.P,U1,31*%
X143510000Y-109220000D03*
%TD*%
D10*
%TO.P,IC2_3,1,Pin_1*%
%TO.N,/3.3V*%
X181734000Y-106865000D03*
D11*
%TO.P,IC2_3,2,Pin_2*%
%TO.N,/GND*%
X181734000Y-109405000D03*
%TO.P,IC2_3,3,Pin_3*%
%TO.N,/SDA*%
X181734000Y-111945000D03*
%TO.P,IC2_3,4,Pin_4*%
%TO.N,/SCL*%
X181734000Y-114485000D03*
%TD*%
D12*
%TO.P,R1,1*%
%TO.N,N/C*%
X148840000Y-94100000D03*
D13*
%TO.P,R1,2*%
X143760000Y-94100000D03*
%TD*%
D10*
%TO.P,J2,1,Pin_1*%
%TO.N,/GND*%
X167875000Y-94275000D03*
D11*
%TO.P,J2,2,Pin_2*%
%TO.N,/GPIO_2*%
X167875000Y-96815000D03*
%TD*%
D12*
%TO.P,R2,1*%
%TO.N,/GND*%
X162340000Y-94100000D03*
D13*
%TO.P,R2,2*%
%TO.N,/3.3V*%
X157260000Y-94100000D03*
%TD*%
D10*
%TO.P,IC2_2,1,Pin_1*%
%TO.N,/5.5V*%
X181875000Y-128425000D03*
D11*
%TO.P,IC2_2,2,Pin_2*%
%TO.N,/GND*%
X181875000Y-125885000D03*
%TO.P,IC2_2,3,Pin_3*%
%TO.N,/SDA*%
X181875000Y-123345000D03*
%TO.P,IC2_2,4,Pin_4*%
%TO.N,/SCL*%
X181875000Y-120805000D03*
%TD*%
D10*
%TO.P,J3,1,Pin_1*%
%TO.N,/GND*%
X172300000Y-94250000D03*
D11*
%TO.P,J3,2,Pin_2*%
%TO.N,/GPIO_1*%
X172300000Y-96790000D03*
%TD*%
D12*
%TO.P,R4,1*%
%TO.N,/GND*%
X162240000Y-99900000D03*
D13*
%TO.P,R4,2*%
%TO.N,/VCC_LOW*%
X157160000Y-99900000D03*
%TD*%
D10*
%TO.P,IC2_4,1,Pin_1*%
%TO.N,/3.3V*%
X168700000Y-106760000D03*
D11*
%TO.P,IC2_4,2,Pin_2*%
%TO.N,/GND*%
X168700000Y-109300000D03*
%TO.P,IC2_4,3,Pin_3*%
%TO.N,/SDA*%
X168700000Y-111840000D03*
%TO.P,IC2_4,4,Pin_4*%
%TO.N,/SCL*%
X168700000Y-114380000D03*
%TD*%
D10*
%TO.P,IC2_1,1,Pin_1*%
%TO.N,/5.5V*%
X168757000Y-128084000D03*
D11*
%TO.P,IC2_1,2,Pin_2*%
%TO.N,/GND*%
X168757000Y-125544000D03*
%TO.P,IC2_1,3,Pin_3*%
%TO.N,/SDA*%
X168757000Y-123004000D03*
%TO.P,IC2_1,4,Pin_4*%
%TO.N,/SCL*%
X168757000Y-120464000D03*
%TD*%
D10*
%TO.P,J4,1,Pin_1*%
%TO.N,/GND*%
X177150000Y-94250000D03*
D11*
%TO.P,J4,2,Pin_2*%
%TO.N,/SET*%
X177150000Y-96790000D03*
%TD*%
D18*
%TO.N,/3.3V*%
X148840000Y-94100000D02*
X157200000Y-94100000D01*
%TO.N,/GND*%
X167875000Y-94275000D02*
X162515000Y-94275000D01*
X162515000Y-94275000D02*
X162340000Y-94100000D01*
X167700000Y-94100000D02*
X167825000Y-94225000D01*
X167825000Y-94225000D02*
X167825000Y-94175000D01*
%TO.N,/5.5V*%
X181241000Y-128084000D02*
X181250000Y-128075000D01*
X143620000Y-93980000D02*
X143700000Y-93900000D01*
X126000000Y-96400000D02*
X126000000Y-99500000D01*
X143760000Y-99460000D02*
X144200000Y-99900000D01*
X168757000Y-128084000D02*
X181241000Y-128084000D01*
X168757000Y-128084000D02*
X168757000Y-129268000D01*
X143760000Y-94100000D02*
X143760000Y-99460000D01*
X126000000Y-99500000D02*
X133400000Y-106900000D01*
X128900000Y-93500000D02*
X126000000Y-96400000D01*
X168757000Y-129268000D02*
X163750000Y-134275000D01*
X139930000Y-100100000D02*
X144000000Y-100100000D01*
X133350000Y-106680000D02*
X139930000Y-100100000D01*
X148250000Y-134275000D02*
X143900000Y-129925000D01*
X163750000Y-134275000D02*
X148250000Y-134275000D01*
%TO.N,/GND*%
X125625000Y-88675000D02*
X156950000Y-88675000D01*
X185325000Y-113000000D02*
X185325000Y-122900000D01*
X122975000Y-111545000D02*
X122975000Y-91325000D01*
X172575000Y-94275000D02*
X177250000Y-94275000D01*
X181851000Y-125849000D02*
X181875000Y-125825000D01*
X182025000Y-94250000D02*
X181850000Y-94250000D01*
X172325000Y-94250000D02*
X172450000Y-94125000D01*
X162240000Y-94460000D02*
X162600000Y-94100000D01*
X181575000Y-94275000D02*
X181950000Y-94650000D01*
X184924520Y-112599520D02*
X185325000Y-113000000D01*
X167700000Y-94275000D02*
X167825000Y-94150000D01*
X181800000Y-109300000D02*
X181850000Y-109350000D01*
X156950000Y-88675000D02*
X162425000Y-94150000D01*
X167875000Y-94275000D02*
X172275000Y-94275000D01*
X184924520Y-112595520D02*
X184924520Y-112599520D01*
X172375000Y-94250000D02*
X172525000Y-94400000D01*
X134240000Y-96040000D02*
X134400000Y-96200000D01*
X128900000Y-96040000D02*
X134240000Y-96040000D01*
X184500000Y-106448022D02*
X184500000Y-96725000D01*
X181648022Y-109300000D02*
X184500000Y-106448022D01*
X176850000Y-94250000D02*
X177100000Y-94000000D01*
X176875000Y-94250000D02*
X177200000Y-93925000D01*
X168700000Y-109300000D02*
X181800000Y-109300000D01*
X162240000Y-99900000D02*
X162240000Y-94460000D01*
X133350000Y-121920000D02*
X122975000Y-111545000D01*
X181734000Y-109405000D02*
X184924520Y-112595520D01*
X181394000Y-109605000D02*
X181434000Y-109565000D01*
X168700000Y-109300000D02*
X181648022Y-109300000D01*
X185325000Y-122900000D02*
X182450000Y-125775000D01*
X177175000Y-94275000D02*
X181575000Y-94275000D01*
X169260000Y-125885000D02*
X168850000Y-125475000D01*
X181875000Y-125885000D02*
X169260000Y-125885000D01*
X122975000Y-91325000D02*
X125625000Y-88675000D01*
X184500000Y-96725000D02*
X182025000Y-94250000D01*
X162340000Y-94100000D02*
X162440000Y-94000000D01*
%TO.N,/RX(TX)*%
X143500000Y-122438000D02*
X143500000Y-122000000D01*
X136398000Y-129540000D02*
X143500000Y-122438000D01*
%TO.N,/TX(RX)*%
X138938000Y-129540000D02*
X146200000Y-122278000D01*
X146200000Y-122278000D02*
X146200000Y-121700000D01*
%TO.N,/SDA*%
X181465000Y-111840000D02*
X181700000Y-112075000D01*
X181734000Y-111945000D02*
X184475000Y-114686000D01*
X184475000Y-121300000D02*
X182525000Y-123250000D01*
X182059000Y-123309000D02*
X182275000Y-123525000D01*
X181304000Y-123004000D02*
X181350000Y-123050000D01*
X168700000Y-111840000D02*
X181465000Y-111840000D01*
X181514000Y-112145000D02*
X181834000Y-112465000D01*
X152850000Y-124050000D02*
X151250000Y-122450000D01*
X167711000Y-124050000D02*
X152850000Y-124050000D01*
X168757000Y-123004000D02*
X181304000Y-123004000D01*
X168757000Y-123004000D02*
X167711000Y-124050000D01*
X184475000Y-114686000D02*
X184475000Y-121300000D01*
X151200000Y-122700000D02*
X151200000Y-121800000D01*
%TO.N,/SCL*%
X168757000Y-120464000D02*
X181714000Y-120464000D01*
X182119000Y-120769000D02*
X182175000Y-120825000D01*
X181714000Y-120464000D02*
X181850000Y-120600000D01*
X181734000Y-114485000D02*
X181734000Y-120009000D01*
X168700000Y-114380000D02*
X181320000Y-114380000D01*
X181814000Y-114685000D02*
X181934000Y-114565000D01*
X181320000Y-114380000D02*
X181475000Y-114225000D01*
X181734000Y-120009000D02*
X181900000Y-120175000D01*
%TO.N,/VLTG_LOW_OUT*%
X131365000Y-90600000D02*
X126000000Y-90600000D01*
X124700000Y-91900000D02*
X124700000Y-111020978D01*
X134200000Y-93435000D02*
X131365000Y-90600000D01*
X126000000Y-90600000D02*
X124700000Y-91900000D01*
X135679022Y-122000000D02*
X136000000Y-122000000D01*
X124700000Y-111020978D02*
X135679022Y-122000000D01*
%TO.N,/VCC_LOW*%
X149140000Y-99900000D02*
X157300000Y-99900000D01*
X157300000Y-99900000D02*
X157500000Y-99700000D01*
%TO.N,/3.3V*%
X165850000Y-104125000D02*
X168650000Y-106925000D01*
X181410000Y-106760000D02*
X181700000Y-107050000D01*
X157260000Y-94100000D02*
X159400000Y-96240000D01*
X159400000Y-100700000D02*
X162825000Y-104125000D01*
X162825000Y-104125000D02*
X165850000Y-104125000D01*
X168700000Y-106760000D02*
X181410000Y-106760000D01*
X159400000Y-96240000D02*
X159400000Y-100700000D01*
X181534000Y-107065000D02*
X181934000Y-106665000D01*
%TD*%
M02*
